<svg width="100" height="115" viewBox="0 0 100 115" fill="none" xmlns="http://www.w3.org/2000/svg">
<path d="M97.683 26.4133L52.9194 0.648749C52.1779 0.185357 51.1585 0 50.0463 0C48.9342 0 47.9147 0.278035 47.1733 0.648749L2.68767 26.506C1.11214 27.4328 0 29.7498 0 31.5107V83.1325C0 84.152 0.185357 85.3568 0.926784 86.3763L99.9073 28.9157C99.3512 27.8035 98.5171 26.9694 97.683 26.4133V26.4133Z" fill="#659AD3"/>
<path d="M0.648438 86.2832C1.11183 87.0247 1.76058 87.6734 2.40933 88.0441L47.0803 113.901C47.8217 114.365 48.8412 114.55 49.9533 114.55C51.0655 114.55 52.0849 114.272 52.8264 113.901L97.312 88.0441C98.8875 87.1173 99.9997 84.8004 99.9997 83.0395V31.4176C99.9997 30.5835 99.907 29.6567 99.4436 28.8226L0.648438 86.2832V86.2832Z" fill="#03599C"/>
<path d="M69.7874 68.4899C65.8949 75.3481 58.4807 79.982 50.0469 79.982C37.5353 79.982 27.3407 69.7874 27.3407 57.2758C27.3407 44.7642 37.5353 34.5696 50.0469 34.5696C58.4807 34.5696 65.8949 39.2035 69.7874 46.1544L81.8356 39.2035C75.5335 28.1748 63.6707 20.6678 50.0469 20.6678C29.843 20.6678 13.439 37.0719 13.439 57.2758C13.439 77.4797 29.843 93.8838 50.0469 93.8838C63.578 93.8838 75.4408 86.4695 81.7429 75.5335L69.7874 68.4899Z" fill="white"/>
</svg>
