<svg width="100" height="113" viewBox="0 0 100 113" fill="none" xmlns="http://www.w3.org/2000/svg">
<path d="M99.9949 33.0432C99.9941 31.1534 99.59 29.4834 98.7726 28.0502C97.9697 26.6409 96.7674 25.4597 95.1546 24.5257C81.8418 16.8495 68.5162 9.19681 55.2077 1.51277C51.6198 -0.558578 48.1411 -0.483064 44.5798 1.61802C39.2809 4.74305 12.7513 19.9425 4.8458 24.5214C1.5901 26.4062 0.00586896 29.2906 0.00508643 33.0396C0 48.477 0.00508643 63.9139 0 79.3516C0 81.1999 0.387742 82.8374 1.1691 84.249C1.97236 85.701 3.19154 86.9147 4.8415 87.8698C12.7474 92.4488 39.2805 107.647 44.5783 110.773C48.1411 112.875 51.6198 112.95 55.2089 110.878C68.5177 103.194 81.8442 95.5413 95.1589 87.8651C96.8089 86.9104 98.028 85.6959 98.8313 84.2451C99.6115 82.8335 100 81.196 100 79.3473C100 79.3473 100 48.4809 99.9949 33.0432" fill="#A179DC"/>
<path d="M50.1523 56.0449L1.16846 84.2488C1.97172 85.7008 3.1909 86.9145 4.84086 87.8695C12.7467 92.4485 39.2799 107.647 44.5776 110.773C48.1405 112.875 51.6192 112.95 55.2083 110.878C68.5171 103.193 81.8435 95.5411 95.1583 87.8648C96.8082 86.9102 98.0274 85.6957 98.8307 84.2449L50.1523 56.0449Z" fill="#280068"/>
<path d="M99.9948 33.0435C99.994 31.1537 99.5898 29.4837 98.7725 28.0505L50.1528 56.0455L98.8311 84.2454C99.6113 82.8337 99.9991 81.1963 99.9999 79.3476C99.9999 79.3476 99.9999 48.4812 99.9948 33.0435" fill="#390091"/>
<path d="M78.9941 45.502V50.7737H84.2658V45.502H86.9017V50.7737H92.1735V53.4096H86.9017V58.6814H92.1735V61.3173H86.9017V66.589H84.2658V61.3173H78.9941V66.589H76.3582V61.3173H71.0864V58.6814H76.3582V53.4096H71.0864V50.7737H76.3582V45.502H78.9941ZM84.2658 53.4096H78.9941V58.6814H84.2658V53.4096Z" fill="white"/>
<path d="M50.2601 19.0254C64.0106 19.0254 76.0159 26.4932 82.4462 37.5932L82.3835 37.4864L66.2053 46.8017C63.0178 41.4048 57.1743 37.7627 50.4713 37.6877L50.2601 37.6865C40.0381 37.6865 31.751 45.9732 31.751 56.1952C31.751 59.538 32.6422 62.6715 34.1921 65.378C37.3825 70.9477 43.3801 74.7044 50.2601 74.7044C57.1827 74.7044 63.2144 70.9 66.3886 65.2707L66.3115 65.4058L82.4654 74.7641C76.1057 85.7702 64.2648 93.2149 50.6742 93.3633L50.2601 93.3655C36.4663 93.3655 24.4268 85.8518 18.0127 74.693C14.8815 69.2455 13.0898 62.9299 13.0898 56.1952C13.0898 35.6672 29.7312 19.0254 50.2601 19.0254V19.0254Z" fill="white"/>
</svg>
