<svg width="74" height="100" viewBox="0 0 74 100" fill="none" xmlns="http://www.w3.org/2000/svg">
<path d="M23.751 77.3341C23.751 77.3341 19.932 79.5564 26.4724 80.3063C34.397 81.2115 38.4467 81.0817 47.1773 79.4314C47.1773 79.4314 49.4773 80.8694 52.6834 82.116C33.1048 90.5037 8.37512 81.6297 23.751 77.3341ZM21.3572 66.3868C21.3572 66.3868 17.0729 69.5585 23.6188 70.2362C32.0842 71.1102 38.7679 71.1815 50.3393 68.9544C50.3393 68.9544 51.9359 70.5767 54.4506 71.4627C30.784 78.3844 4.424 72.0075 21.3572 66.3868V66.3868Z" fill="#0074BD"/>
<path d="M41.5238 47.8135C46.3505 53.3692 40.258 58.3642 40.258 58.3642C40.258 58.3642 52.5063 52.0426 46.8825 44.1227C41.6279 36.7404 37.5999 33.0737 59.4079 20.4257C59.4079 20.4265 25.1754 28.9736 41.5238 47.8135V47.8135Z" fill="#EA2D2E"/>
<path d="M67.417 85.4324C67.417 85.4324 70.2442 87.7636 64.3023 89.5653C53.0049 92.9877 17.2718 94.0195 7.3476 89.7023C3.78182 88.1498 10.4712 85.9971 12.5757 85.5429C14.77 85.0679 16.0229 85.1544 16.0229 85.1544C12.055 82.3609 -9.62329 90.642 5.01314 93.0173C44.9256 99.4872 77.7683 90.1037 67.417 85.4324V85.4324ZM25.5899 55.042C25.5899 55.042 7.4157 59.3592 19.1545 60.9286C24.1118 61.5919 33.9896 61.4397 43.1968 60.6674C50.7193 60.0353 58.2683 58.6854 58.2683 58.6854C58.2683 58.6854 55.6182 59.8222 53.6987 61.1312C35.2393 65.9868 -0.41203 63.7253 9.8527 58.7615C18.5304 54.5645 25.5899 55.042 25.5899 55.042V55.042ZM58.193 73.265C76.9559 63.5178 68.2798 54.1503 62.2242 55.4121C60.7437 55.7205 60.0796 55.9889 60.0796 55.9889C60.0796 55.9889 60.6308 55.1245 61.6818 54.7527C73.6609 50.5429 82.8722 67.1725 57.818 73.7593C57.818 73.7577 58.1056 73.4973 58.193 73.265V73.265Z" fill="#0074BD"/>
<path d="M46.8827 0C46.8827 0 57.2716 10.3953 37.0266 26.3752C20.7911 39.1979 33.3246 46.5073 37.021 54.8622C27.5429 46.3118 20.5908 38.7837 25.2541 31.7779C32.1021 21.4964 51.0734 16.5094 46.8827 0V0Z" fill="#EA2D2E"/>
<path d="M27.4342 99.6862C45.4401 100.837 73.0979 99.0453 73.7524 90.5247C73.7524 90.5247 72.4939 93.7548 58.8701 96.3175C43.4998 99.2112 24.539 98.8739 13.2969 97.0177C13.2969 97.0185 15.6001 98.9252 27.4342 99.6862V99.6862Z" fill="#0074BD"/>
</svg>
