<svg width="100" height="100" viewBox="0 0 100 100" fill="none" xmlns="http://www.w3.org/2000/svg">
<path d="M0 0H100V100H0V0Z" fill="#F7DF1E"/>
<path d="M26.2965 83.5677L33.9492 78.9364C35.4256 81.554 36.7686 83.7688 39.99 83.7688C43.078 83.7688 45.0248 82.5608 45.0248 77.8624V45.91H54.4223V77.9953C54.4223 87.7286 48.7169 92.1589 40.3929 92.1589C32.8753 92.1589 28.5115 88.2654 26.2964 83.5669" fill="black"/>
<path d="M59.5239 82.5604L67.1757 78.1301C69.19 81.4196 71.8079 83.8359 76.4393 83.8359C80.3331 83.8359 82.8161 81.8891 82.8161 79.204C82.8161 75.982 80.2655 74.8407 75.9693 72.9618L73.6206 71.9542C66.8404 69.0683 62.3428 65.4435 62.3428 57.791C62.3428 50.7428 67.7128 45.3724 76.1039 45.3724C82.0782 45.3724 86.3742 47.4535 89.4617 52.8909L82.1449 57.5894C80.5338 54.7032 78.789 53.5623 76.1041 53.5623C73.3519 53.5623 71.6065 55.3075 71.6065 57.5894C71.6065 60.4088 73.3519 61.5502 77.379 63.2956L79.7282 64.3024C87.7163 67.7261 92.2139 71.2162 92.2139 79.0697C92.2139 87.5281 85.5685 92.1594 76.6409 92.1594C67.9146 92.1594 62.2758 87.9978 59.5241 82.5604" fill="black"/>
</svg>
