<svg width="100" height="104" viewBox="0 0 100 104" fill="none" xmlns="http://www.w3.org/2000/svg">
<path d="M99.7354 61.7579C99.1344 59.9378 97.5599 58.6699 95.5236 58.3654C94.5636 58.2221 93.464 58.2833 92.1629 58.5516C89.8951 59.0194 88.2126 59.1975 86.9847 59.2322C91.6194 51.4067 95.3882 42.4828 97.5579 34.0825C101.066 20.4999 99.1913 14.3121 97.0006 11.513C91.2029 4.10492 82.7441 0.124939 72.5388 0.00293751C67.0952 -0.0635035 62.3159 1.01136 59.8231 1.78411C57.5018 1.37482 55.0058 1.14609 52.3868 1.10373C47.4782 1.02548 43.1408 2.09548 39.4347 4.29475C37.3824 3.60117 34.0898 2.62307 30.2869 1.99871C21.3426 0.530298 14.1341 1.67461 8.86143 5.39947C2.47662 9.90959 -0.483365 17.7455 0.0641362 28.6897C0.237762 32.1645 2.18168 42.7365 5.24214 52.7631C7.00109 58.5259 8.87671 63.3117 10.8169 66.9884C13.5683 72.2021 16.5123 75.2725 19.8175 76.3749C21.6702 76.9923 25.036 77.4243 28.5764 74.4764C29.025 75.0195 29.6234 75.5595 30.4182 76.061C31.4271 76.6974 32.661 77.2173 33.893 77.5255C38.3339 78.6357 42.4935 78.3579 46.0422 76.802C46.064 77.4331 46.0809 78.0362 46.0952 78.5568C46.1189 79.4016 46.142 80.2296 46.173 81.004C46.3832 86.241 46.7395 90.3129 47.7952 93.1618C47.853 93.3187 47.9311 93.5574 48.0135 93.8104C48.5399 95.4231 49.4208 98.1224 51.661 100.237C53.9814 102.426 56.7876 103.098 59.3577 103.098C60.6468 103.098 61.8767 102.929 62.9553 102.698C66.8008 101.874 71.1678 100.618 74.3269 96.1201C77.3135 91.8677 78.7655 85.463 79.0282 75.3709C79.0623 75.0857 79.0937 74.8132 79.1241 74.5534C79.1444 74.3782 79.1653 74.199 79.1863 74.0203L79.8901 74.0821L80.0714 74.0944C83.9879 74.2729 88.7768 73.4422 91.7178 72.0761C94.0418 70.9976 101.489 67.0662 99.7354 61.7579" fill="black"/>
<path d="M93.0386 62.7914C81.3936 65.1934 80.5931 61.2507 80.5931 61.2507C92.8884 43.0065 98.0282 19.8483 93.5926 14.1804C81.492 -1.28044 60.5453 6.03154 60.1957 6.22138L60.0832 6.24152C57.7825 5.76393 55.2078 5.47941 52.314 5.43219C47.0448 5.34584 43.0479 6.81356 40.015 9.11353C40.015 9.11353 2.64806 -6.28018 4.38594 28.474C4.75565 35.8677 14.9832 84.418 27.1821 69.7536C31.6409 64.3913 35.9489 59.8573 35.9489 59.8573C38.0887 61.2787 40.6502 62.0038 43.3356 61.7434L43.5442 61.5663C43.4794 62.2321 43.509 62.8833 43.6278 63.6542C40.4852 67.1654 41.4086 67.7819 35.1264 69.075C28.7696 70.3851 32.5039 72.7175 34.9421 73.327C37.8979 74.0662 44.7362 75.1133 49.3568 68.6451L49.1725 69.3832C50.4039 70.3693 51.2685 75.7983 51.1236 80.7196C50.9787 85.6411 50.8819 89.0198 51.8521 91.6589C52.8224 94.2981 53.7893 100.236 62.0479 98.4665C68.9488 96.9876 72.5248 93.1554 73.0223 86.7629C73.3753 82.2183 74.1742 82.8901 74.2247 78.827L74.8655 76.9035C75.6044 70.743 74.9829 68.7556 79.2344 69.6799L80.2676 69.7707C83.3968 69.9131 87.4923 69.2674 89.896 68.1502C95.0719 65.7481 98.1416 61.7376 93.0381 62.7914H93.0386Z" fill="#336791"/>
<path d="M42.2019 31.7806C41.1528 31.6346 40.2022 31.7698 39.7214 32.1337C39.4508 32.3386 39.3672 32.5758 39.3447 32.7393C39.2843 33.172 39.5876 33.6502 39.7737 33.897C40.3006 34.5955 41.0706 35.0756 41.8327 35.1814C41.9431 35.1967 42.0528 35.2041 42.1621 35.2041C43.4331 35.2041 44.5883 34.2146 44.6901 33.4843C44.8174 32.5696 43.4896 31.9598 42.2019 31.7806" fill="white"/>
<path d="M76.9666 31.8077H76.9664C76.8664 31.0907 75.5904 30.8863 74.3796 31.0546C73.1707 31.2232 71.9981 31.7688 72.0961 32.4874C72.1748 33.0462 73.1834 34.0003 74.378 34C74.4787 34 74.5805 33.9933 74.6831 33.979C75.4804 33.8685 76.0654 33.3622 76.3432 33.0703C76.7666 32.6258 77.0113 32.13 76.9666 31.8077Z" fill="white"/>
<path d="M96.915 62.518C96.471 61.1753 95.0419 60.7431 92.6674 61.2337C85.6173 62.6886 83.0925 61.6807 82.2632 61.0702C87.7434 52.7218 92.2514 42.6309 94.6833 33.2155C95.8355 28.7556 96.4719 24.6138 96.5238 21.238C96.5812 17.5321 95.9503 14.8094 94.6486 13.1461C89.4007 6.44042 81.6988 2.84358 72.3756 2.74473C65.9662 2.67273 60.5509 4.31315 59.5011 4.77431C57.2902 4.22449 54.8801 3.88696 52.2565 3.8439C47.4447 3.76612 43.2858 4.91807 39.8422 7.26596C38.3465 6.70943 34.4808 5.38246 29.7538 4.62105C21.5809 3.30496 15.0865 4.30204 10.4519 7.58543C4.92177 11.5034 2.36877 18.5068 2.86349 28.4007C3.02994 31.7297 4.9264 41.9697 7.91972 51.7766C11.8596 64.684 16.1422 71.9911 20.6486 73.494C21.176 73.6699 21.7844 73.7931 22.4548 73.7931C24.0987 73.7931 26.1139 73.052 28.2108 70.5312C31.6938 66.341 34.9457 62.8299 36.1444 61.554C37.9159 62.5051 39.8616 63.0359 41.8523 63.0891C41.8558 63.1412 41.8611 63.1933 41.8657 63.2452C41.4664 63.7188 41.1388 64.1339 40.8596 64.4883C39.4806 66.2389 39.1935 66.6033 34.7542 67.5175C33.4916 67.778 30.1374 68.4692 30.0886 70.8201C30.0351 73.3887 34.0528 74.4674 34.5107 74.5818C36.106 74.9812 37.6427 75.1782 39.1083 75.1782C42.673 75.1779 45.8096 74.0065 48.3165 71.7399C48.2392 80.8969 48.6212 89.9202 49.7206 92.6695C50.6209 94.9199 52.8209 100.42 59.7698 100.42C60.7892 100.42 61.9117 100.301 63.1463 100.037C70.3983 98.4818 73.5474 95.2767 74.7658 88.2103C75.4177 84.4338 76.5366 75.4154 77.0626 70.5782C78.1731 70.9245 79.6028 71.0831 81.1483 71.0829C84.3718 71.0829 88.0911 70.3981 90.4237 69.3154C93.0438 68.0986 97.7725 65.1122 96.915 62.518ZM79.6447 29.83C79.6207 31.2581 79.4241 32.5545 79.2158 33.9079C78.9917 35.3633 78.7597 36.8681 78.7014 38.6949C78.6437 40.4726 78.8657 42.3209 79.0806 44.1081C79.5144 47.7181 79.9596 51.4349 78.236 55.1023C77.9682 54.6266 77.7096 54.1076 77.4726 53.5327C77.2584 53.0135 76.7933 52.1794 76.1495 51.0249C73.6437 46.5314 67.7761 36.0088 70.7798 31.7149C71.6744 30.4365 73.9449 29.1227 79.6447 29.83V29.83ZM72.736 5.63665C81.0895 5.82116 87.6973 8.9462 92.3759 14.9245C95.9642 19.5101 92.0129 40.3753 80.5742 58.3758C80.4612 58.2322 80.3462 58.0873 80.2272 57.9387C80.1797 57.8792 80.1314 57.8188 80.0825 57.7577C83.0383 52.876 82.4603 48.0462 81.9459 43.7638C81.7345 42.0065 81.5349 40.3466 81.5856 38.7877C81.6382 37.1348 81.8567 35.7178 82.0679 34.3473C82.3278 32.6582 82.592 30.9109 82.5191 28.8507C82.5735 28.6347 82.5955 28.3794 82.567 28.0763C82.3809 26.1007 80.1256 20.1889 75.5284 14.8372C73.0141 11.9106 69.3468 8.63506 64.3399 6.42584C66.4936 5.9795 69.4388 5.56326 72.736 5.63665V5.63665ZM25.9919 68.6862C23.6817 71.4637 22.0862 70.9315 21.5617 70.7567C18.1431 69.6163 14.1767 62.3914 10.6797 50.9341C7.65372 41.0205 5.88528 31.0518 5.74545 28.2565C5.30352 19.4159 7.44653 13.2544 12.1152 9.94351C19.7131 4.5553 32.2049 7.78036 37.2244 9.41615C37.1521 9.48722 37.0771 9.55389 37.0056 9.62612C28.769 17.9447 28.9644 32.157 28.9845 33.0256C28.9838 33.3608 29.0118 33.8354 29.0505 34.4883C29.1922 36.8785 29.4559 41.3275 28.7514 46.3659C28.0965 51.0478 29.5397 55.6304 32.7103 58.9385C33.0386 59.2809 33.3812 59.6025 33.7352 59.9051C32.3237 61.4165 29.2565 64.7587 25.9919 68.6862V68.6862ZM34.7938 56.9418C32.2383 54.2756 31.0778 50.5667 31.6093 46.7655C32.3533 41.443 32.0785 36.8077 31.9311 34.3174C31.9105 33.969 31.8922 33.6636 31.8813 33.4226C33.0846 32.3559 38.6608 29.3679 42.6373 30.2791C44.4523 30.6949 45.5577 31.9304 46.0175 34.056C48.3969 45.06 46.3326 49.6465 44.6739 53.332C44.3319 54.0914 44.009 54.809 43.733 55.5517L43.5194 56.1256C42.9781 57.5768 42.4746 58.926 42.1625 60.2074C39.4461 60.1991 36.8033 59.0388 34.7938 56.9418V56.9418ZM35.2108 71.7823C34.4176 71.5841 33.7041 71.2398 33.2856 70.9544C33.6352 70.7898 34.2574 70.5662 35.3365 70.3439C40.5589 69.2686 41.3652 68.51 43.1265 66.2737C43.5305 65.7611 43.9881 65.1798 44.622 64.4719C44.6222 64.4714 44.6225 64.4712 44.6227 64.471C45.567 63.4139 45.9987 63.5931 46.7819 63.9179C47.4167 64.1807 48.0348 64.9761 48.2855 65.8516C48.404 66.2651 48.5374 67.0501 48.1015 67.6606C44.4222 72.812 39.0611 72.7458 35.2108 71.7823ZM62.5414 97.2153C56.1526 98.5841 53.8906 95.3244 52.4 91.5979C51.4379 89.1919 50.9651 78.343 51.3006 66.3626C51.305 66.2031 51.2823 66.0491 51.2383 65.9044C51.2001 65.625 51.1413 65.3423 51.0598 65.0578C50.5607 63.3146 49.3451 61.8564 47.8866 61.2519C47.3072 61.0119 46.2434 60.5713 44.9653 60.8982C45.238 59.7752 45.7108 58.5073 46.2231 57.134L46.4381 56.5562C46.6803 55.9049 46.9838 55.2303 47.3051 54.5164C49.0409 50.66 51.4182 45.3783 48.8381 33.446C47.8716 28.9769 44.6445 26.7945 39.7521 27.3013C36.819 27.6048 34.1359 28.7882 32.7976 29.4667C32.5098 29.6126 32.2466 29.7533 32.0008 29.8906C32.3742 25.3875 33.7856 16.9721 39.0648 11.6478C42.3885 8.29568 46.8152 6.64021 52.2088 6.72934C62.8359 6.90343 69.6506 12.3571 73.4965 16.9018C76.8105 20.8181 78.6051 24.7629 79.3213 26.8904C73.9354 26.3429 70.2724 27.4062 68.4153 30.0608C64.3756 35.8354 70.6254 47.0438 73.6292 52.4303C74.1799 53.4177 74.6554 54.2708 74.805 54.6333C75.7831 57.0039 77.0494 58.5864 77.974 59.7419C78.2573 60.0958 78.5324 60.4391 78.7414 60.7389C77.1103 61.2093 74.1801 62.2958 74.4471 67.727C74.2318 70.4525 72.7001 83.212 71.9223 87.72C70.8954 93.6756 68.7037 95.8941 62.5414 97.2153V97.2153ZM89.2085 66.698C87.5406 67.4724 84.7491 68.0532 82.0973 68.1778C79.1683 68.3151 77.6774 67.8497 77.3267 67.5636C77.1619 64.179 78.4219 63.8253 79.7552 63.451C79.9647 63.3919 80.1691 63.3348 80.3663 63.2658C80.489 63.3655 80.6233 63.4646 80.7703 63.5616C83.1244 65.1155 87.3234 65.2831 93.251 64.0596C93.2728 64.055 93.2945 64.0508 93.3161 64.0464C92.5167 64.7939 91.1485 65.7972 89.2085 66.698V66.698Z" fill="white"/>
</svg>
