<svg width="100" height="90" viewBox="0 0 100 90" fill="none" xmlns="http://www.w3.org/2000/svg">
<path d="M50.0009 53.7541C55.0297 53.7541 59.1064 49.6774 59.1064 44.6486C59.1064 39.6199 55.0297 35.5432 50.0009 35.5432C44.9721 35.5432 40.8955 39.6199 40.8955 44.6486C40.8955 49.6774 44.9721 53.7541 50.0009 53.7541Z" fill="#61DAFB"/>
<path d="M84.5847 29.6326C82.8275 28.9936 80.9904 28.3546 79.0735 27.7955C79.5527 25.8786 79.9521 23.9617 80.2716 22.1246C81.9489 11.5815 80.1118 4.15335 75 1.27795C73.4824 0.399361 71.8051 0 69.8882 0C64.2971 0 57.1885 4.15335 50 11.1022C42.8115 4.15335 35.7029 0 30.1118 0C28.1949 0 26.5176 0.399361 25 1.27795C19.8882 4.23323 18.0511 11.6613 19.7284 22.1246C20.0479 23.9617 20.4473 25.8786 20.9265 27.7955C19.0096 28.3546 17.1725 28.9137 15.4153 29.6326C5.43131 33.4665 0 38.738 0 44.6486C0 50.5591 5.51118 55.8307 15.4153 59.6645C17.1725 60.3035 19.0096 60.9425 20.9265 61.5016C20.4473 63.4185 20.0479 65.3355 19.7284 67.1725C18.0511 77.7157 19.8882 85.1438 25 88.0192C26.5176 88.8978 28.1949 89.2971 30.1118 89.2971C35.7827 89.2971 42.8914 85.1438 50 78.1949C57.1885 85.1438 64.2971 89.2971 69.8882 89.2971C71.8051 89.2971 73.4824 88.8978 75 88.0192C80.1118 85.0639 81.9489 77.6358 80.2716 67.1725C79.9521 65.3355 79.5527 63.4185 79.0735 61.5016C80.9904 60.9425 82.8275 60.3834 84.5847 59.6645C94.5687 55.8307 100 50.5591 100 44.6486C100 38.738 94.5687 33.4665 84.5847 29.6326ZM72.7636 5.27157C76.0383 7.1885 77.1566 13.099 75.7987 21.4856C75.5591 23.1629 75.1597 24.9201 74.6805 26.7572C70.5272 25.7987 66.1342 25.1597 61.5016 24.7604C58.7859 20.9265 55.9904 17.492 53.1949 14.377C59.1054 8.54633 65.0958 4.55272 69.9681 4.55272C71.0064 4.55272 71.9649 4.79233 72.7636 5.27157V5.27157ZM63.8179 52.6358C62.3802 55.1917 60.7029 57.7476 58.9457 60.3035C55.9904 60.5431 53.0351 60.623 50 60.623C46.885 60.623 43.9297 60.5431 41.0543 60.3035C39.2971 57.7476 37.6997 55.1917 36.262 52.6358C34.7444 50 33.3067 47.2843 32.0288 44.6486C33.3067 42.0128 34.7444 39.2971 36.262 36.6613C37.6997 34.1054 39.377 31.5495 41.1342 28.9936C44.0895 28.754 47.0447 28.6741 50.0799 28.6741C53.1949 28.6741 56.1502 28.754 59.0256 28.9936C60.7828 31.5495 62.3802 34.1054 63.8179 36.6613C65.3355 39.2971 66.7732 42.0128 68.0511 44.6486C66.6933 47.2843 65.3355 49.9201 63.8179 52.6358ZM70.4473 50C71.6454 52.7955 72.6038 55.5112 73.4824 58.2268C70.7668 58.8658 67.8914 59.3451 64.8562 59.7444C65.8147 58.2268 66.853 56.6294 67.7316 54.9521C68.6901 53.2748 69.5687 51.5974 70.4473 50ZM50 71.6454C48.0831 69.5687 46.246 67.3323 44.4888 65.016C46.3259 65.0959 48.1629 65.1757 50 65.1757C51.8371 65.1757 53.6741 65.0959 55.5112 65.016C53.754 67.3323 51.9169 69.5687 50 71.6454ZM35.1438 59.6645C32.1086 59.2652 29.2332 58.7859 26.5176 58.147C27.3962 55.5112 28.3546 52.7157 29.5527 49.9201C30.4313 51.5176 31.3099 53.1949 32.2684 54.7923C33.2268 56.5495 34.1853 58.0671 35.1438 59.6645V59.6645ZM29.5527 39.2971C28.3546 36.5016 27.3962 33.7859 26.5176 31.0703C29.2332 30.4313 32.1086 29.9521 35.1438 29.5527C34.1853 31.0703 33.147 32.6677 32.2684 34.345C31.3099 36.0224 30.4313 37.6997 29.5527 39.2971V39.2971ZM50 17.6518C51.9169 19.7284 53.754 21.9649 55.5112 24.2812C53.6741 24.2013 51.8371 24.1214 50 24.1214C48.1629 24.1214 46.3259 24.2013 44.4888 24.2812C46.246 21.9649 48.0831 19.7284 50 17.6518V17.6518ZM67.7316 34.4249L64.8562 29.6326C67.8914 30.0319 70.7668 30.5112 73.4824 31.1502C72.6038 33.7859 71.6454 36.5815 70.4473 39.377C69.5687 37.6997 68.6901 36.0224 67.7316 34.4249V34.4249ZM24.2013 21.4856C22.8435 13.099 23.9617 7.1885 27.2364 5.27157C28.0351 4.79233 28.9936 4.55272 30.0319 4.55272C34.8243 4.55272 40.8147 8.46645 46.8051 14.377C44.0096 17.4121 41.2141 20.9265 38.4984 24.7604C33.8658 25.1597 29.4728 25.8786 25.3195 26.7572C24.8403 24.9201 24.5208 23.1629 24.2013 21.4856ZM4.47284 44.6486C4.47284 40.8946 9.02556 36.901 17.0128 33.9457C18.6102 33.3067 20.3674 32.7476 22.1246 32.2684C23.4026 36.262 25 40.4952 26.9169 44.7284C25 48.9617 23.3227 53.115 22.1246 57.1086C11.1022 53.9137 4.47284 49.1214 4.47284 44.6486V44.6486ZM27.2364 84.0256C23.9617 82.1086 22.8435 76.1981 24.2013 67.8115C24.4409 66.1342 24.8403 64.377 25.3195 62.5399C29.4728 63.4984 33.8658 64.1374 38.4984 64.5367C41.2141 68.3706 44.0096 71.8051 46.8051 74.9201C40.8946 80.7508 34.9042 84.7444 30.0319 84.7444C28.9936 84.7444 28.0351 84.5048 27.2364 84.0256ZM75.7987 67.8115C77.1566 76.1981 76.0383 82.1086 72.7636 84.0256C71.9649 84.5048 71.0064 84.7444 69.9681 84.7444C65.1757 84.7444 59.1853 80.8307 53.1949 74.9201C55.9904 71.885 58.7859 68.3706 61.5016 64.5367C66.1342 64.1374 70.5272 63.4185 74.6805 62.5399C75.1597 64.377 75.4792 66.1342 75.7987 67.8115V67.8115ZM82.9872 55.3514C81.3898 55.9904 79.6326 56.5495 77.8754 57.0288C76.5974 53.0351 75 48.8019 73.0831 44.5687C75 40.3355 76.6773 36.1821 77.8754 32.1885C88.8978 35.3834 95.5272 40.1757 95.5272 44.6486C95.5272 48.4026 90.8946 52.3962 82.9872 55.3514V55.3514Z" fill="#61DAFB"/>
</svg>
