<svg width="100" height="100" viewBox="0 0 100 100" fill="none" xmlns="http://www.w3.org/2000/svg">
<path d="M0 50V100H50H100V50V0H50H0V50Z" fill="#007ACC"/>
<path d="M22.1135 50.3335L22.0817 54.4287H28.5897H35.0976V72.9208V91.4128H39.7008H44.304V72.9208V54.4287H50.8119H57.3198V50.4128C57.3198 48.1906 57.2722 46.3335 57.2087 46.2859C57.1611 46.2224 49.2405 46.1906 39.6373 46.2065L22.1611 46.2541L22.1135 50.3335Z" fill="white"/>
<path d="M80.6912 46.1375C83.2309 46.7724 85.1674 47.8994 86.9451 49.7406C87.8658 50.7248 89.2308 52.5184 89.342 52.947C89.3737 53.074 85.0245 55.9946 82.3896 57.6295C82.2943 57.693 81.9134 57.2803 81.4848 56.6454C80.1991 54.7724 78.8499 53.9628 76.7864 53.82C73.7547 53.6136 71.8023 55.2009 71.8182 57.8517C71.8182 58.6295 71.9293 59.0898 72.2467 59.7248C72.9134 61.1057 74.1515 61.9311 78.0404 63.6136C85.1991 66.693 88.2626 68.7248 90.1674 71.6136C92.2943 74.8359 92.7705 79.9787 91.3261 83.8041C89.7388 87.9628 85.8023 90.7882 80.2626 91.7248C78.5483 92.0263 74.4848 91.9787 72.6435 91.6454C68.6277 90.9311 64.8182 88.947 62.4689 86.3438C61.5483 85.3279 59.7547 82.6771 59.8658 82.4867C59.9134 82.4232 60.3261 82.1692 60.7864 81.8994C61.2309 81.6454 62.9134 80.6771 64.5007 79.7565L67.3737 78.0898L67.9769 78.9787C68.8182 80.2644 70.6594 82.0263 71.7705 82.6136C74.961 84.2962 79.342 84.0581 81.5007 82.1216C82.4213 81.2803 82.8023 80.4073 82.8023 79.1216C82.8023 77.9628 82.6594 77.4549 82.0562 76.5819C81.2785 75.4708 79.6912 74.5343 75.1832 72.5819C70.0245 70.3597 67.8023 68.9787 65.7705 66.7882C64.5959 65.5184 63.4848 63.4867 63.0245 61.7882C62.6435 60.3755 62.5483 56.8359 62.8499 55.4073C63.9134 50.4232 67.6753 46.947 73.1039 45.9152C74.8658 45.5819 78.961 45.7089 80.6912 46.1375V46.1375Z" fill="white"/>
</svg>
