<svg width="41" height="40" viewBox="0 0 41 40" fill="none" xmlns="http://www.w3.org/2000/svg">
<path d="M27.0491 19.7054C26.8483 19.3172 27.0156 18.9255 27.6583 18.2628C28.4181 17.4761 29.352 15.3473 28.6759 13.2987C28.5922 13.031 28.475 12.7665 28.3311 12.5054L28.2976 12.4452L28.2508 12.3615L28.0868 12.3381C27.9328 12.3146 27.0257 12.3213 25.0474 12.3414C24.4382 12.3448 23.8993 12.3515 23.6248 12.3515H16.4148C16.1403 12.3515 15.6014 12.3448 14.9922 12.3414C13.3152 12.3247 12.4081 12.318 12.0767 12.3314C12.0165 12.3314 11.9763 12.3347 11.9529 12.3381L11.7888 12.3615L11.7085 12.5054C11.655 12.6059 11.6014 12.7029 11.5579 12.8033C10.537 14.9958 11.5579 17.4125 12.3813 18.2628C13.024 18.9255 13.1914 19.3172 12.9905 19.7021C12.8734 19.9331 12.6993 20.0703 12.4784 20.1138L11.993 20.2075L12.2608 20.6226C12.3512 20.7665 12.4717 20.8803 12.6022 20.9573C12.9771 21.1816 13.4424 21.2418 13.7671 21.2485C13.7805 21.2485 13.8173 21.2653 13.9077 21.3657C15.1462 22.7414 16.06 22.9824 20.0232 22.9824C23.9863 22.9824 24.9001 22.7414 26.1386 21.3657C26.2089 21.2887 26.2558 21.2485 26.2826 21.2485C26.6006 21.2418 27.0625 21.1816 27.4441 20.9573C27.5813 20.8736 27.6985 20.7565 27.7855 20.6226L28.0499 20.2109L27.5713 20.1138C27.3336 20.0669 27.1663 19.9364 27.0491 19.7054V19.7054Z" fill="#543930"/>
<path d="M18.2556 22.9523L20.0699 20.5724L14.3058 20.4251L13.9209 21.3857C13.9209 21.3857 14.346 21.8242 14.5736 22.0117C14.9519 22.323 15.6314 22.795 17.2983 22.9054L18.2556 22.9523Z" fill="url(#paint0_radial_617_345)"/>
<path d="M14.1083 20.4352C15.3535 18.2126 12.1635 18.0318 12.1434 17.9783C12.2372 18.082 12.2974 18.1758 12.3844 18.2628C12.8631 18.7481 13.0874 19.1364 13.0773 19.3373C13.0405 19.9364 12.6556 20.1038 12.3142 20.144C12.1334 20.1674 11.9995 20.2042 11.9995 20.2042C11.9995 20.2042 13.228 21.5666 14.1083 20.4352Z" fill="url(#paint1_radial_617_345)"/>
<path d="M12.0862 17.8745C12.2033 18.0352 15.5975 16.3347 16.1698 14.2561C16.287 13.8377 16.3908 13.4059 16.4042 12.9573C16.4142 12.6226 16.374 12.2243 16.2301 11.9398C16.0527 11.5916 12.2636 11.7155 12.2636 11.7155C10.5297 13.7038 11.0518 16.4586 12.0862 17.8745V17.8745Z" fill="url(#paint2_radial_617_345)"/>
<path d="M21.7835 22.9523L19.9692 20.5724L25.7333 20.4251L26.1182 21.3857C26.1182 21.3857 25.6931 21.8242 25.4655 22.0117C25.0872 22.323 24.4077 22.795 22.7408 22.9054L21.7835 22.9523Z" fill="url(#paint3_radial_617_345)"/>
<path d="M25.9336 20.4385C24.6884 18.2159 27.8817 18.0352 27.8985 17.9816C27.8047 18.0854 27.7445 18.1791 27.6608 18.2661C27.1821 18.7515 26.9545 19.1398 26.9679 19.3406C27.0047 19.9398 27.3897 20.1072 27.7344 20.1473C27.9152 20.1708 28.0491 20.2076 28.0491 20.2076C28.0491 20.2076 26.8139 21.5699 25.9336 20.4385V20.4385Z" fill="url(#paint4_radial_617_345)"/>
<path d="M27.9557 17.8745C27.8385 18.0352 24.441 16.3347 23.872 14.2561C23.7548 13.8377 23.6511 13.4059 23.6377 12.9573C23.6276 12.6226 23.6678 12.2243 23.8117 11.9398C23.9892 11.5916 27.7783 11.7155 27.7783 11.7155C29.5122 13.7038 28.99 16.4586 27.9557 17.8745V17.8745Z" fill="url(#paint5_radial_617_345)"/>
<path d="M36.93 28.4987C36.91 28.5456 36.8865 28.5991 36.8598 28.656C36.2439 30.082 34.607 34.0586 33.8539 35.2167C33.2882 36.0837 32.3476 36.4184 31.4305 36.4184C30.5133 36.4184 29.6263 36.0803 29.171 35.605C28.207 34.5975 27.5878 33.8242 27.5878 33.8242V40H12.3342L12.3543 36.0435L12.3744 32.569C12.3744 32.569 11.0254 32.9339 9.4656 33.3088C9.25807 33.359 9.05054 33.3824 8.83966 33.3824C7.36016 33.3824 5.85389 32.2008 5.44887 30.5071C4.76602 27.6485 4.43799 24.3514 4.43799 24.3514C4.43799 24.3113 4.43799 24.2745 4.44134 24.2376C4.44134 24.1339 4.45138 24.0502 4.46142 23.9765C4.47816 23.8694 4.50493 23.7924 4.53841 23.7322C4.64887 23.5347 4.84301 23.5548 5.07397 23.4845L6.69071 23.1096C6.84468 23.0627 7.00201 22.9857 7.15598 22.9857C7.30661 22.9857 7.45724 23.0594 7.59782 23.3071C7.63799 23.3774 7.67816 23.4611 7.71498 23.5615C7.72167 23.5749 7.72502 23.5883 7.73171 23.6016L7.80535 23.8293L9.11749 27.9632L11.233 26.1088C11.956 25.5665 12.6455 24.8468 13.9911 24.2745C13.9978 24.2711 14.0079 24.2678 14.0179 24.2644C14.048 24.2544 14.0782 24.241 14.1083 24.2276C14.2321 24.1774 14.366 24.1272 14.5033 24.0803C14.5669 24.0602 14.6305 24.0368 14.6974 24.0167C15.079 23.8929 15.5041 23.7824 15.9861 23.6887C16.5953 23.5682 17.2949 23.4778 18.1016 23.4209C18.1551 23.4175 18.2121 23.4142 18.2656 23.4109C18.3192 23.4075 18.3727 23.4042 18.4296 23.4042C18.8915 23.3774 19.3836 23.364 19.9158 23.364H20.0028C20.4815 23.364 20.9334 23.3774 21.3618 23.3975C21.4187 23.4008 21.4757 23.4042 21.5292 23.4075C21.5895 23.4109 21.6464 23.4142 21.7033 23.4209C22.5167 23.4778 23.2363 23.5749 23.879 23.7121C23.889 23.7155 23.8957 23.7155 23.9058 23.7188L24.284 23.8058C24.4146 23.836 24.5418 23.8694 24.6656 23.9063C25.084 24.0268 25.4656 24.1673 25.8104 24.3213C25.8338 24.3314 25.8572 24.3414 25.8773 24.3514C25.8874 24.3548 25.8941 24.3615 25.9041 24.3648C27.5744 25.1381 28.4815 26.3063 29.2648 27.6485C30.3426 29.4929 30.9485 30.6644 30.9485 30.6644L32.8698 27.7657L32.9869 27.5883C33.0037 27.5715 33.0271 27.5548 33.0572 27.5381C33.1175 27.5046 33.1978 27.4745 33.2949 27.4443C33.6196 27.3506 34.1016 27.287 34.4029 27.287C34.4899 27.287 34.5635 27.2937 34.6104 27.3037L36.4112 27.8058C36.5552 27.8427 36.7292 27.9665 36.8397 28.1138C36.8932 28.1874 36.93 28.2644 36.9434 28.3381C36.9568 28.395 36.9535 28.4485 36.93 28.4987V28.4987Z" fill="url(#paint6_linear_617_345)"/>
<path d="M18.168 22.0519V24.0302C18.168 24.0536 18.168 24.077 18.1713 24.1004C18.178 24.3046 18.2249 24.5021 18.3052 24.6795C18.3454 24.7699 18.3956 24.8569 18.4525 24.9406C18.5596 25.0979 18.6968 25.2385 18.8542 25.3456C18.9378 25.4059 19.0249 25.4594 19.1186 25.4996C19.1253 25.503 19.132 25.5063 19.142 25.5097C19.2692 25.5699 19.4098 25.6101 19.5537 25.6302C19.6341 25.6435 19.7211 25.6502 19.8048 25.6502H20.1328C20.2265 25.6502 20.3203 25.6435 20.4106 25.6268C20.5579 25.6034 20.6952 25.5599 20.8257 25.4963C20.8291 25.4929 20.8291 25.4929 20.8291 25.4929H20.8324C20.9228 25.4528 21.0065 25.4025 21.0868 25.3423C21.2408 25.2352 21.378 25.0979 21.4851 24.944C21.542 24.8603 21.5889 24.7766 21.6324 24.6829C21.7094 24.5021 21.7596 24.3046 21.7663 24.0971C21.7696 24.077 21.7696 24.0536 21.7696 24.0302V22.0519H18.168Z" fill="#E59600"/>
<path d="M20.4042 24.6896C20.8092 24.4117 21.1908 24.2109 21.5757 23.9632C21.887 23.7657 22.4126 23.3975 22.9046 23.585C23.323 23.7456 23.1724 24.3147 23.1724 25.0611C23.1724 25.9381 23.3197 26.4469 22.9883 26.5942C22.5431 26.7917 21.954 26.4435 21.4653 26.2293C21.1874 26.1088 20.3908 25.744 20.2569 25.5331C20.1197 25.3222 20.1264 24.8268 20.4042 24.6896Z" fill="#212121"/>
<path d="M21.4855 24.9315C22.0413 24.8166 22.4815 24.6736 22.4688 24.612C22.4561 24.5505 21.9952 24.5937 21.4394 24.7086C20.8837 24.8234 20.4434 24.9665 20.4561 25.028C20.4689 25.0896 20.9297 25.0463 21.4855 24.9315Z" fill="#616161"/>
<path d="M22.4775 25.6543C22.4864 25.5921 22.0398 25.4763 21.4798 25.3957C20.9199 25.3151 20.4588 25.3002 20.4498 25.3624C20.4409 25.4246 20.8875 25.5404 21.4474 25.621C22.0073 25.7016 22.4685 25.7165 22.4775 25.6543Z" fill="#616161"/>
<path d="M19.4268 24.6896C19.0218 24.4117 18.6402 24.2109 18.2552 23.9632C17.9439 23.7657 17.4184 23.3975 16.9264 23.585C16.508 23.7456 16.6586 24.3147 16.6586 25.0611C16.6586 25.9381 16.5113 26.4469 16.8427 26.5942C17.2879 26.7917 17.877 26.4435 18.3657 26.2293C18.6435 26.1088 19.4435 25.744 19.5774 25.5331C19.7113 25.3222 19.7046 24.8268 19.4268 24.6896V24.6896Z" fill="#212121"/>
<path d="M19.3765 25.0314C19.3893 24.9699 18.949 24.8269 18.3932 24.712C17.8374 24.5971 17.3766 24.5539 17.3639 24.6154C17.3511 24.677 17.7914 24.82 18.3472 24.9349C18.903 25.0498 19.3638 25.093 19.3765 25.0314Z" fill="#616161"/>
<path d="M18.3856 25.6225C18.9455 25.5419 19.3922 25.4261 19.3832 25.3639C19.3743 25.3017 18.9131 25.3166 18.3532 25.3972C17.7933 25.4778 17.3466 25.5936 17.3556 25.6558C17.3645 25.718 17.8257 25.7031 18.3856 25.6225Z" fill="#616161"/>
<path d="M20.8057 25.2184C20.8057 25.7272 20.4073 26.0184 19.9153 26.0184C19.4232 26.0184 19.0249 25.7272 19.0249 25.2184C19.0249 24.7096 19.2492 24.3013 19.9153 24.3013C20.558 24.3013 20.8057 24.713 20.8057 25.2184Z" fill="#212121"/>
<path d="M5.83695 24.2343C4.80264 24.2343 3.78172 23.7992 3.03862 23.0393C2.42272 22.41 2.0746 21.5531 2.00766 20.492C1.98757 20.1573 1.96414 19.0293 2.54322 18.6611C2.66372 18.5841 2.79092 18.5473 2.92146 18.5473C3.08548 18.5473 3.22607 18.6075 3.33653 18.6845C3.4905 18.3598 3.76163 18.0418 4.18339 18.0418C4.21351 18.0418 4.24699 18.0418 4.28046 18.0485C4.49134 18.072 4.64866 18.1456 4.75577 18.2192C4.86958 18.1356 5.03025 18.0586 5.22774 18.0586H5.27126C5.60933 18.0787 5.78339 18.236 5.87042 18.3665C5.95745 18.4937 5.98757 18.641 5.99092 18.7749C6.07795 18.728 6.18841 18.6912 6.31895 18.6912C6.42941 18.6912 6.53988 18.718 6.65034 18.7715C7.16582 19.0226 7.07879 19.4845 7.01854 19.7891C7.00515 19.8661 6.98841 19.9464 6.98172 20.0234C6.93151 20.5724 7.1859 21.0109 7.2428 21.0979C7.29971 21.1548 7.35661 21.2084 7.41017 21.2619C7.88213 21.7172 8.28716 22.1088 8.00933 23.0561C7.80515 23.759 6.92816 24.2343 5.83695 24.2343V24.2343Z" fill="#DBDBDB"/>
<path d="M5.9131 18.8887C5.90975 19.3272 5.82272 19.7155 5.81268 20.1138C5.80264 20.5054 5.86624 20.8971 6.06038 21.2151V21.2184C6.1039 21.2887 6.08047 21.3824 6.01017 21.4259C5.94323 21.4661 5.8562 21.4494 5.81268 21.3891C5.52482 21.0142 5.46122 20.5322 5.488 20.1004C5.49804 19.8828 5.53821 19.6653 5.6085 19.4611C5.6721 19.2536 5.76582 19.0561 5.9131 18.8887V18.8887Z" fill="#999898"/>
<path d="M4.74531 18.3531C4.67502 18.6243 4.61477 18.8753 4.57125 19.1297C4.53443 19.3841 4.51435 19.6385 4.51769 19.8962C4.53108 20.4084 4.65828 20.9138 4.86581 21.3858C4.89929 21.4628 4.86581 21.5531 4.78882 21.5866C4.71518 21.6201 4.6315 21.59 4.59468 21.5197C4.3269 21.0276 4.18966 20.4619 4.18966 19.8996C4.18631 19.6184 4.22313 19.3339 4.31351 19.0661C4.40054 18.7983 4.54113 18.5439 4.74531 18.3531V18.3531Z" fill="#999898"/>
<path d="M3.51665 18.5708C3.43631 19.1064 3.35598 19.5917 3.37272 20.0972C3.3928 20.5959 3.5133 21.0913 3.77104 21.5064V21.5097C3.81456 21.58 3.79113 21.6737 3.72083 21.7172C3.65389 21.7574 3.56686 21.7407 3.52 21.6771C3.18192 21.2185 3.05138 20.6495 3.04468 20.1039C3.04134 19.8294 3.07146 19.5549 3.14845 19.2938C3.21874 19.0294 3.3359 18.775 3.51665 18.5708V18.5708Z" fill="#999898"/>
<path d="M35.2426 28.7431C34.148 28.7431 33.2744 28.2678 33.0635 27.5582C32.7857 26.6109 33.1907 26.2193 33.6627 25.764C33.7162 25.7105 33.7731 25.6569 33.83 25.6C33.8836 25.5163 34.138 25.0745 34.0911 24.5289C34.0844 24.4519 34.0677 24.3716 34.0543 24.2946C33.994 23.9866 33.907 23.5247 34.4225 23.277C34.533 23.2235 34.6434 23.1967 34.7539 23.1967C34.8844 23.1967 34.9949 23.2335 35.0819 23.2804C35.0853 23.1465 35.1154 23.0025 35.2024 22.872C35.2894 22.7448 35.4602 22.5875 35.8016 22.564H35.8451C36.0426 22.564 36.2032 22.641 36.3171 22.7247C36.4275 22.6477 36.5815 22.5774 36.7924 22.554C36.8258 22.5506 36.8593 22.5473 36.8894 22.5473C37.3112 22.5473 37.5823 22.8653 37.7363 23.19C37.8501 23.113 37.9907 23.0527 38.1514 23.0527C38.2819 23.0527 38.4091 23.0929 38.5296 23.1665C39.1087 23.5347 39.0886 24.6594 39.0652 24.9975C38.9982 26.0586 38.6535 26.9155 38.0342 27.5448C37.2978 28.308 36.2769 28.7431 35.2426 28.7431V28.7431Z" fill="#DBDBDB"/>
<path d="M35.1658 23.3975C35.313 23.5649 35.4068 23.7623 35.4737 23.9665C35.544 24.1707 35.5808 24.3883 35.5942 24.6059C35.621 25.0377 35.554 25.5163 35.2695 25.8946C35.2193 25.9615 35.1222 25.9749 35.0553 25.9213C34.995 25.8745 34.9783 25.7874 35.0185 25.7239L35.0218 25.7205C35.2126 25.4025 35.2796 25.0142 35.2695 24.6192C35.2561 24.2243 35.1691 23.836 35.1658 23.3975V23.3975Z" fill="#999898"/>
<path d="M36.3344 22.8586C36.5386 23.0494 36.6792 23.3038 36.7662 23.5716C36.8566 23.8394 36.8934 24.1239 36.89 24.4051C36.89 24.9674 36.7528 25.5331 36.485 26.0251C36.4448 26.0988 36.3545 26.1256 36.2808 26.0854C36.2105 26.0486 36.1838 25.9615 36.2139 25.8912C36.4214 25.4193 36.5486 24.9138 36.562 24.4017C36.5653 24.1473 36.5486 23.8896 36.5084 23.6352C36.4649 23.3808 36.4047 23.1297 36.3344 22.8586V22.8586Z" fill="#999898"/>
<path d="M37.5623 23.0795C37.7431 23.2837 37.8602 23.5381 37.9339 23.7992C38.0109 24.0603 38.041 24.3381 38.0376 24.6126C38.0309 25.1582 37.9004 25.7272 37.5623 26.1858C37.5121 26.2528 37.4184 26.2661 37.3514 26.2159C37.2878 26.1691 37.2711 26.082 37.3113 26.0151V26.0117C37.5657 25.5967 37.6895 25.1046 37.7096 24.6025C37.7263 24.1005 37.6427 23.6117 37.5623 23.0795V23.0795Z" fill="#999898"/>
<path d="M14.3386 17.9247C13.1971 17.9247 12.2666 16.9272 12.2666 15.7054C12.2666 14.4837 13.1971 13.4862 14.3386 13.4862H25.7762C26.9176 13.4862 27.8482 14.4837 27.8482 15.7054C27.8482 16.9272 26.9176 17.9247 25.7762 17.9247H14.3386Z" fill="#E59600"/>
<path d="M26.9949 14.2159C26.9949 14.1389 26.9915 14.0619 26.9882 13.9849C26.9848 13.9113 26.9815 13.8377 26.9748 13.764C26.9547 13.4025 26.9179 13.051 26.8677 12.7096C26.8677 12.6929 26.8643 12.6795 26.861 12.6628C26.8275 12.4251 26.784 12.1908 26.7371 11.9632C26.7371 11.9598 26.7338 11.9531 26.7338 11.9498C26.6735 11.6653 26.6066 11.3874 26.5263 11.1197C26.3488 10.4937 26.1179 9.90795 25.8501 9.36569C25.6794 9.01423 25.4886 8.6795 25.2777 8.3682C25.2811 8.36485 25.2777 8.36151 25.271 8.35816C23.9656 6.36318 22.0509 5.18494 20.056 5.18494C18.0576 5.18494 16.1396 6.36987 14.8275 8.3749C14.8242 8.37824 14.8242 8.37824 14.8242 8.38159C14.6133 8.70293 14.4191 9.041 14.2451 9.40251C13.984 9.93138 13.7631 10.5038 13.589 11.113C13.5087 11.3774 13.4417 11.6519 13.3848 11.9297C13.3815 11.9331 13.3815 11.9398 13.3815 11.9431C13.3313 12.1774 13.2878 12.4184 13.2509 12.6628C13.2476 12.6762 13.2476 12.6862 13.2476 12.6996C13.194 13.0477 13.1572 13.4025 13.1371 13.7674C13.1304 13.8377 13.1271 13.9113 13.1237 13.9849C13.1204 14.0619 13.117 14.1389 13.117 14.2192C13.1137 14.3431 13.1104 14.4669 13.1104 14.5908C13.1104 15.6586 13.2375 16.6226 13.4752 17.4795C13.4919 17.5565 13.512 17.6268 13.5355 17.7004C13.5555 17.7741 13.579 17.8444 13.6024 17.9146C14.4124 20.405 16.1363 21.9448 18.1011 22.5506C18.1547 22.5674 18.2083 22.5808 18.2652 22.5941C18.302 22.6075 18.3422 22.6176 18.379 22.6276C18.3823 22.6276 18.3823 22.631 18.3857 22.6276C18.4024 22.6343 18.4158 22.6377 18.4292 22.641C18.9614 22.7749 19.507 22.8418 20.056 22.8418C20.4945 22.8418 20.9329 22.7983 21.3614 22.7146C21.4183 22.7013 21.4719 22.6912 21.5288 22.6778C21.5857 22.6644 21.6459 22.6511 21.7028 22.6343C21.7162 22.6343 21.7296 22.631 21.743 22.6243C23.8183 22.0854 25.6627 20.5188 26.5095 17.9146C26.5329 17.8444 26.5564 17.7741 26.5765 17.7004C26.5999 17.6301 26.62 17.5565 26.6367 17.4828C26.871 16.6259 27.0016 15.6586 27.0016 14.5908C27.0016 14.4636 26.9982 14.3398 26.9949 14.2159V14.2159Z" fill="#FFCA28"/>
<path d="M18.0005 13.5297C17.8097 13.2786 17.3712 12.9104 16.5177 12.9104C15.6641 12.9104 15.2256 13.2786 15.0348 13.5297C14.9512 13.6401 14.9712 13.7707 15.0315 13.8477C15.085 13.9213 15.2457 13.9883 15.4198 13.928C15.5972 13.8678 15.9419 13.6903 16.5177 13.6837C17.0934 13.687 17.4382 13.8678 17.6156 13.928C17.793 13.9883 17.9503 13.9213 18.0039 13.8477C18.0641 13.7707 18.0842 13.6401 18.0005 13.5297Z" fill="#6D4C41"/>
<path d="M24.9268 13.5297C24.736 13.2786 24.2975 12.9104 23.4439 12.9104C22.5904 12.9104 22.1519 13.2786 21.9611 13.5297C21.8774 13.6401 21.8975 13.7707 21.9578 13.8477C22.0113 13.9213 22.172 13.9883 22.346 13.928C22.5234 13.8678 22.8682 13.6903 23.4439 13.6837C24.0197 13.687 24.3645 13.8678 24.5419 13.928C24.7193 13.9883 24.8766 13.9213 24.9301 13.8477C24.9904 13.7707 25.0105 13.6401 24.9268 13.5297V13.5297Z" fill="#6D4C41"/>
<path d="M16.6488 16.1339C17.2127 16.1339 17.6698 15.6603 17.6698 15.0761C17.6698 14.492 17.2127 14.0184 16.6488 14.0184C16.085 14.0184 15.6279 14.492 15.6279 15.0761C15.6279 15.6603 16.085 16.1339 16.6488 16.1339Z" fill="#404040"/>
<path d="M23.4633 16.1339C24.0271 16.1339 24.4842 15.6603 24.4842 15.0761C24.4842 14.492 24.0271 14.0184 23.4633 14.0184C22.8995 14.0184 22.4424 14.492 22.4424 15.0761C22.4424 15.6603 22.8995 16.1339 23.4633 16.1339Z" fill="#404040"/>
<path d="M20.856 16.9941C20.8325 16.9841 20.8125 16.9807 20.789 16.9774H19.3229C19.2995 16.9807 19.2794 16.9841 19.256 16.9941C19.1221 17.0477 19.0484 17.1849 19.112 17.3322C19.1756 17.4795 19.4668 17.8912 20.056 17.8912C20.6451 17.8912 20.9363 17.4795 20.9999 17.3322C21.0635 17.1849 20.9899 17.0477 20.856 16.9941V16.9941Z" fill="#E59600"/>
<path d="M21.8 18.6678C21.1406 19.0594 18.9749 19.0594 18.3155 18.6678C17.9373 18.4435 17.549 18.7883 17.7063 19.1331C17.8603 19.4711 19.0419 20.2578 20.0628 20.2578C21.0837 20.2578 22.2486 19.4711 22.4025 19.1331C22.5632 18.7883 22.1816 18.4435 21.8 18.6678V18.6678Z" fill="#795548"/>
<path d="M28.6757 10.246C27.9694 8.62927 11.5343 11.0862 11.4707 11.3305C11.3602 11.7289 11.3502 12.1975 11.5242 12.7196C11.5343 12.7464 11.551 12.7766 11.5544 12.8033C11.6949 14.0184 12.9167 13.9079 12.9167 13.9079C12.7895 16.1071 13.4824 17.1715 13.4824 17.1715C13.4824 17.1715 14.3426 13.3958 14.2623 12.8201C14.2623 12.8201 14.9184 12.6895 15.8657 12.3247C16.3912 12.1205 25.315 11.2535 25.5527 11.5849C25.7903 11.9196 25.9979 12.3749 26.1318 12.9941C26.3728 14.0954 26.4732 15.9364 26.6037 17.0544C26.5937 16.9573 27.3502 15.6753 27.4774 14.4468C27.5008 14.2092 28.2606 14.2962 28.5619 13.5431C28.6021 13.4594 28.6389 13.3757 28.6724 13.2987C28.8464 12.9104 28.9602 12.6025 29.0272 12.3381C29.2615 11.4243 28.6757 10.246 28.6757 10.246V10.246Z" fill="#543930"/>
<path d="M6.87082 16.6896C8.37193 16.6896 9.58882 15.4727 9.58882 13.9716C9.58882 12.4705 8.37193 11.2536 6.87082 11.2536C5.36972 11.2536 4.15283 12.4705 4.15283 13.9716C4.15283 15.4727 5.36972 16.6896 6.87082 16.6896Z" fill="url(#paint7_radial_617_345)"/>
<path d="M6.06095 13.9214C6.51017 13.9214 6.87434 13.5572 6.87434 13.108C6.87434 12.6588 6.51017 12.2946 6.06095 12.2946C5.61173 12.2946 5.24756 12.6588 5.24756 13.108C5.24756 13.5572 5.61173 13.9214 6.06095 13.9214Z" fill="white"/>
<path d="M34.0378 19.9866C35.5389 19.9866 36.7558 18.7697 36.7558 17.2686C36.7558 15.7675 35.5389 14.5506 34.0378 14.5506C32.5367 14.5506 31.3198 15.7675 31.3198 17.2686C31.3198 18.7697 32.5367 19.9866 34.0378 19.9866Z" fill="url(#paint8_radial_617_345)"/>
<path d="M33.2279 17.2184C33.6772 17.2184 34.0413 16.8542 34.0413 16.405C34.0413 15.9558 33.6772 15.5916 33.2279 15.5916C32.7787 15.5916 32.4146 15.9558 32.4146 16.405C32.4146 16.8542 32.7787 17.2184 33.2279 17.2184Z" fill="white"/>
<path d="M10.7402 9.80753C10.7402 8.77657 14.9176 8.53891 20.0624 8.53891C25.2072 8.53891 29.3779 8.77657 29.3779 9.80753C29.3779 10.8385 25.2072 11.9029 20.0591 11.9029C14.9109 11.9029 10.7402 10.8418 10.7402 9.80753Z" fill="#212121"/>
<path d="M26.7745 8.19749C26.6238 5.72385 25.777 4.20084 23.0925 3.03933C22.1184 2.61758 21.0071 2.43013 19.9895 2.41339C19.9862 2.41339 19.9828 2.41339 19.9795 2.41339C19.9761 2.41339 19.9728 2.41339 19.9694 2.41339C18.9519 2.43013 17.8406 2.61758 16.8665 3.03933C14.182 4.20084 13.3351 5.72385 13.1845 8.19749L12.9502 12.0971H19.9694H19.9862H27.0054L26.7745 8.19749Z" fill="url(#paint9_radial_617_345)"/>
<path d="M29.0403 9.10796C28.5416 8.87365 27.1959 8.76988 26.7574 8.80001C26.7574 8.80001 28.8294 9.3021 28.729 9.66026C28.5784 10.1958 26.6169 11.0494 19.9792 11.0695C13.3416 11.046 11.38 10.1925 11.2294 9.66026C11.129 9.3021 13.201 8.80001 13.201 8.80001C12.7625 8.76653 11.4202 8.87365 10.9181 9.10796C10.493 9.30545 10.2085 9.43934 10.2085 9.97825C10.2085 11.4042 12.0796 11.8795 12.6721 12.0736C14.6905 12.7331 19.9692 12.9071 19.9692 12.9071C19.9725 12.9071 25.2612 12.7331 27.283 12.0736C27.8754 11.8795 29.7466 11.4042 29.7466 9.97825C29.7499 9.43599 29.4654 9.30545 29.0403 9.10796Z" fill="#595858"/>
<path d="M27.6048 36.0435V40H12.3345V36.0435H13.9914V24.2745C13.9981 24.2711 14.0081 24.2678 14.0182 24.2645C14.0483 24.2544 14.0784 24.241 14.1085 24.2276C14.2324 24.1774 14.3663 24.1272 14.5035 24.0804C14.5671 24.0603 14.6307 24.0368 14.6977 24.0168C15.0792 23.8929 15.5043 23.7824 15.9864 23.6887V36.0435H23.8792V23.7122C23.8893 23.7155 23.896 23.7155 23.906 23.7188L24.2843 23.8059C24.4148 23.836 24.542 23.8695 24.6659 23.9063C25.0843 24.0268 25.4659 24.1674 25.8106 24.3214C25.8341 24.3314 25.8575 24.3414 25.8776 24.3515V36.0435H27.6048Z" fill="#7C7C7C"/>
<path d="M24.9763 5.43598C26.4774 5.43598 27.6943 4.2191 27.6943 2.71799C27.6943 1.21689 26.4774 0 24.9763 0C23.4752 0 22.2583 1.21689 22.2583 2.71799C22.2583 4.2191 23.4752 5.43598 24.9763 5.43598Z" fill="url(#paint10_radial_617_345)"/>
<path d="M24.1664 2.67112C24.6156 2.67112 24.9798 2.30695 24.9798 1.85773C24.9798 1.40851 24.6156 1.04434 24.1664 1.04434C23.7172 1.04434 23.353 1.40851 23.353 1.85773C23.353 2.30695 23.7172 2.67112 24.1664 2.67112Z" fill="white"/>
<defs>
<radialGradient id="paint0_radial_617_345" cx="0" cy="0" r="1" gradientUnits="userSpaceOnUse" gradientTransform="translate(15.8382 19.548) rotate(-173.784) scale(4.61559 2.95715)">
<stop offset="0.7275" stop-color="#6D4C41" stop-opacity="0"/>
<stop offset="1" stop-color="#6D4C41"/>
</radialGradient>
<radialGradient id="paint1_radial_617_345" cx="0" cy="0" r="1" gradientUnits="userSpaceOnUse" gradientTransform="translate(12.7273 19.445) rotate(31.7837) scale(1.41545 1.22469)">
<stop offset="0.3031" stop-color="#6D4C41"/>
<stop offset="1" stop-color="#6D4C41" stop-opacity="0"/>
</radialGradient>
<radialGradient id="paint2_radial_617_345" cx="0" cy="0" r="1" gradientUnits="userSpaceOnUse" gradientTransform="translate(14.738 16.0742) rotate(-86.7663) scale(6.09234 3.84391)">
<stop offset="0.7247" stop-color="#6D4C41" stop-opacity="0"/>
<stop offset="1" stop-color="#6D4C41"/>
</radialGradient>
<radialGradient id="paint3_radial_617_345" cx="0" cy="0" r="1" gradientUnits="userSpaceOnUse" gradientTransform="translate(24.1986 19.548) rotate(-6.21648) scale(4.61559 2.95715)">
<stop offset="0.7275" stop-color="#6D4C41" stop-opacity="0"/>
<stop offset="1" stop-color="#6D4C41"/>
</radialGradient>
<radialGradient id="paint4_radial_617_345" cx="0" cy="0" r="1" gradientUnits="userSpaceOnUse" gradientTransform="translate(27.3146 19.4484) rotate(148.216) scale(1.41545 1.22469)">
<stop offset="0.3031" stop-color="#6D4C41"/>
<stop offset="1" stop-color="#6D4C41" stop-opacity="0"/>
</radialGradient>
<radialGradient id="paint5_radial_617_345" cx="0" cy="0" r="1" gradientUnits="userSpaceOnUse" gradientTransform="translate(25.304 16.0743) rotate(-93.2337) scale(6.09234 3.84391)">
<stop offset="0.7247" stop-color="#6D4C41" stop-opacity="0"/>
<stop offset="1" stop-color="#6D4C41"/>
</radialGradient>
<linearGradient id="paint6_linear_617_345" x1="20.6946" y1="23.2853" x2="20.6946" y2="36.2502" gradientUnits="userSpaceOnUse">
<stop offset="0.0013" stop-color="#FF7507"/>
<stop offset="0.3875" stop-color="#FD6806"/>
<stop offset="1" stop-color="#F94B04"/>
</linearGradient>
<radialGradient id="paint7_radial_617_345" cx="0" cy="0" r="1" gradientUnits="userSpaceOnUse" gradientTransform="translate(6.36371 13.1856) scale(2.71732)">
<stop offset="0.0079" stop-color="#FF3D00"/>
<stop offset="0.9993" stop-color="#DD2C00"/>
</radialGradient>
<radialGradient id="paint8_radial_617_345" cx="0" cy="0" r="1" gradientUnits="userSpaceOnUse" gradientTransform="translate(33.3918 16.3903) scale(2.71732)">
<stop offset="0.0092" stop-color="#00B0FF"/>
<stop offset="0.9993" stop-color="#0091EA"/>
</radialGradient>
<radialGradient id="paint9_radial_617_345" cx="0" cy="0" r="1" gradientUnits="userSpaceOnUse" gradientTransform="translate(20.0722 3.30967) rotate(180) scale(10.9167 7.45501)">
<stop stop-color="#787676"/>
<stop offset="0.8605" stop-color="#3F3F3F"/>
</radialGradient>
<radialGradient id="paint10_radial_617_345" cx="0" cy="0" r="1" gradientUnits="userSpaceOnUse" gradientTransform="translate(24.3775 1.79495) scale(2.71732)">
<stop offset="0.0144" stop-color="#00E676"/>
<stop offset="1" stop-color="#00C853"/>
</radialGradient>
</defs>
</svg>
