<svg width="41" height="41" viewBox="0 0 41 41" fill="none" xmlns="http://www.w3.org/2000/svg">
<path d="M29.3003 14.8459V18.1459C29.3003 18.4484 29.5478 18.6959 29.8503 18.6959H33.1503C33.4528 18.6959 33.7003 18.4484 33.7003 18.1459V14.8459C33.7003 14.5434 33.4528 14.2959 33.1503 14.2959H29.8503C29.5478 14.2959 29.3003 14.5406 29.3003 14.8459ZM32.6003 17.5959H30.4003V15.3959H32.6003V17.5959Z" fill="#BDBDBD"/>
<path d="M32.7377 8.81243V8.67493H30.2627V8.81243C30.2627 9.33768 30.5982 10.4899 31.0877 10.6632L31.0712 10.9244C31.0712 11.0702 31.0629 11.1692 31.1069 11.2737C31.1784 11.4469 31.3737 11.5679 31.5002 11.6202C31.7092 11.7082 31.9127 11.8677 31.9127 12.0959C31.9127 12.3242 31.7284 12.5084 31.5002 12.5084C31.2719 12.5084 31.0877 12.3242 31.0877 12.0959C31.0877 11.9832 31.0547 11.9089 31.0079 11.8374C30.9777 11.7907 30.9254 11.7577 30.8594 11.7384C30.6779 11.6917 30.5102 11.7384 30.4029 11.8677C30.2709 12.0244 30.2517 12.2719 30.3507 12.4974C30.4277 12.6679 30.5514 12.8329 30.7329 13.0034C30.9584 13.2179 31.2362 13.3334 31.5139 13.3334H31.5194C32.1767 13.3307 32.7239 12.7889 32.7404 12.1317C32.7597 11.3534 32.1464 11.2132 31.9154 10.9354C31.8302 10.8337 31.9154 10.6659 31.9154 10.6659C32.4022 10.4899 32.7377 9.33768 32.7377 8.81243V8.81243Z" fill="#BDBDBD"/>
<path d="M15.55 13.9H16.65C16.9525 13.9 17.2 14.1475 17.2 14.45V16.1H23.8V14.45C23.8 14.1475 24.0475 13.9 24.35 13.9H25.45C25.7525 13.9 26 14.1475 26 14.45V21.6H32.6V21.325C32.6 20.8685 32.9685 20.5 33.425 20.5H33.975C34.4315 20.5 34.8 20.8685 34.8 21.325V34.8H15V14.45C15 14.1475 15.2475 13.9 15.55 13.9Z" fill="url(#paint0_radial_649_90)"/>
<path d="M26.55 32.5999H32.05C32.3525 32.5999 32.6 32.3524 32.6 32.0499V29.8499C32.6 29.5474 32.3525 29.2999 32.05 29.2999H26.55C26.2475 29.2999 26 29.5474 26 29.8499V32.0499C26 32.3524 26.2475 32.5999 26.55 32.5999Z" fill="#455A64"/>
<path d="M26.55 27.0999H32.05C32.3525 27.0999 32.6 26.8524 32.6 26.5499V24.3499C32.6 24.0474 32.3525 23.7999 32.05 23.7999H26.55C26.2475 23.7999 26 24.0474 26 24.3499V26.5499C26 26.8524 26.2475 27.0999 26.55 27.0999Z" fill="#455A64"/>
<path d="M17.7502 27.0999H23.2502C23.5527 27.0999 23.8002 26.8524 23.8002 26.5499V24.3499C23.8002 24.0474 23.5527 23.7999 23.2502 23.7999H17.7502C17.4477 23.7999 17.2002 24.0474 17.2002 24.3499V26.5499C17.2002 26.8524 17.4477 27.0999 17.7502 27.0999Z" fill="#455A64"/>
<path d="M17.7502 32.5999H23.2502C23.5527 32.5999 23.8002 32.3524 23.8002 32.0499V29.8499C23.8002 29.5474 23.5527 29.2999 23.2502 29.2999H17.7502C17.4477 29.2999 17.2002 29.5474 17.2002 29.8499V32.0499C17.2002 32.3524 17.4477 32.5999 17.7502 32.5999Z" fill="#455A64"/>
<path d="M17.7502 21.6H23.2502C23.5527 21.6 23.8002 21.3525 23.8002 21.05V18.85C23.8002 18.5475 23.5527 18.3 23.2502 18.3H17.7502C17.4477 18.3 17.2002 18.5475 17.2002 18.85V21.05C17.2002 21.3525 17.4477 21.6 17.7502 21.6Z" fill="#455A64"/>
<path d="M6.2002 10.6V11.7V33.7H11.7002V11.7V10.6M7.3002 32.05V29.9627C7.3002 29.718 7.5972 29.5942 7.77045 29.7675L10.1327 32.1297C10.3059 32.303 10.1822 32.6 9.93745 32.6H7.8502C7.5477 32.6 7.3002 32.3525 7.3002 32.05ZM10.1299 30.576L8.2242 28.6702C8.05095 28.497 8.1747 28.2 8.41945 28.2H10.0502C10.3527 28.2 10.6002 28.4475 10.6002 28.75V30.3807C10.6002 30.6255 10.3032 30.7492 10.1299 30.576ZM7.3002 26.55V24.4627C7.3002 24.218 7.5972 24.0942 7.77045 24.2675L10.1327 26.6297C10.3059 26.803 10.1822 27.1 9.93745 27.1H7.8502C7.5477 27.1 7.3002 26.8525 7.3002 26.55ZM10.1299 25.076L8.2242 23.1702C8.05095 22.997 8.1747 22.7 8.41945 22.7H10.0502C10.3527 22.7 10.6002 22.9475 10.6002 23.25V24.8807C10.6002 25.1255 10.3032 25.2492 10.1299 25.076ZM7.3002 21.05V18.9627C7.3002 18.718 7.5972 18.5942 7.77045 18.7675L10.1327 21.1297C10.3059 21.303 10.1822 21.6 9.93745 21.6H7.8502C7.5477 21.6 7.3002 21.3525 7.3002 21.05V21.05ZM10.1299 19.576L8.2242 17.6702C8.05095 17.497 8.1747 17.2 8.41945 17.2H10.0502C10.3527 17.2 10.6002 17.4475 10.6002 17.75V19.3807C10.6002 19.6255 10.3032 19.7492 10.1299 19.576ZM7.3002 15.55V13.4627C7.3002 13.218 7.5972 13.0942 7.77045 13.2675L10.1327 15.6297C10.3059 15.803 10.1822 16.1 9.93745 16.1H7.8502C7.5477 16.1 7.3002 15.8525 7.3002 15.55V15.55ZM10.1299 14.076L8.2242 12.1702C8.05095 11.997 8.1747 11.7 8.41945 11.7H10.0502C10.3527 11.7 10.6002 11.9475 10.6002 12.25V13.8807C10.6002 14.1255 10.3032 14.2492 10.1299 14.076ZM9.93745 10.6H7.8502Z" fill="url(#paint1_linear_649_90)"/>
<path d="M10.6001 5.1H5.1001C5.1001 4.49225 5.59235 4 6.2001 4H11.7001C12.3078 4 12.8001 4.49225 12.8001 5.1H10.6001Z" fill="#FFB300"/>
<path d="M31.4999 15.693C31.2717 15.693 31.0874 15.6243 31.0874 15.396V12.25C31.0874 12.107 31.2717 11.942 31.4999 11.942C31.7282 11.942 31.9124 12.129 31.9124 12.25V15.396C31.9124 15.6243 31.7282 15.693 31.4999 15.693Z" fill="#FF9800"/>
<path opacity="0.2" d="M11.2877 9.9125V34.3875H6.6127V9.9125H11.2877ZM10.3224 14.5683C10.7019 14.5683 11.0127 14.2603 11.0127 13.8808V12.25C11.0127 11.7193 10.5809 11.2875 10.0502 11.2875H8.41945C8.1417 11.2875 7.89145 11.4553 7.7842 11.711C7.67695 11.9695 7.7347 12.2637 7.9327 12.459L9.83845 14.3647C9.97045 14.4967 10.1409 14.5683 10.3224 14.5683ZM7.8502 16.5125H9.93745C10.2152 16.5125 10.4654 16.3447 10.5727 16.089C10.6799 15.8305 10.6222 15.5363 10.4242 15.341L8.06195 12.9788C7.9327 12.8495 7.75945 12.778 7.57795 12.778C7.19845 12.778 6.8877 13.086 6.8877 13.4655V15.55C6.8877 16.0808 7.31945 16.5125 7.8502 16.5125M10.3224 20.0683C10.7019 20.0683 11.0127 19.7603 11.0127 19.3808V17.75C11.0127 17.2193 10.5809 16.7875 10.0502 16.7875H8.41945C8.1417 16.7875 7.89145 16.9553 7.7842 17.211C7.67695 17.4695 7.7347 17.7637 7.9327 17.959L9.83845 19.8647C9.97045 19.9967 10.1409 20.0683 10.3224 20.0683ZM7.8502 22.0125H9.93745C10.2152 22.0125 10.4654 21.8448 10.5727 21.589C10.6799 21.3305 10.6222 21.0362 10.4242 20.841L8.06195 18.4788C7.9327 18.3495 7.75945 18.278 7.57795 18.278C7.19845 18.278 6.8877 18.586 6.8877 18.9655V21.05C6.8877 21.5808 7.31945 22.0125 7.8502 22.0125ZM10.3224 25.5683C10.7019 25.5683 11.0127 25.2603 11.0127 24.8808V23.25C11.0127 22.7193 10.5809 22.2875 10.0502 22.2875H8.41945C8.1417 22.2875 7.89145 22.4553 7.7842 22.711C7.67695 22.9695 7.7347 23.2638 7.9327 23.459L9.83845 25.3648C9.97045 25.4968 10.1409 25.5683 10.3224 25.5683M7.8502 27.5125H9.93745C10.2152 27.5125 10.4654 27.3448 10.5727 27.089C10.6799 26.8305 10.6222 26.5362 10.4242 26.341L8.06195 23.9788C7.9327 23.8495 7.75945 23.778 7.57795 23.778C7.19845 23.778 6.8877 24.086 6.8877 24.4655V26.55C6.8877 27.0808 7.31945 27.5125 7.8502 27.5125M10.3224 31.0683C10.7019 31.0683 11.0127 30.7603 11.0127 30.3808V28.75C11.0127 28.2193 10.5809 27.7875 10.0502 27.7875H8.41945C8.1417 27.7875 7.89145 27.9553 7.7842 28.211C7.67695 28.4695 7.7347 28.7638 7.9327 28.959L9.83845 30.8648C9.97045 30.9968 10.1409 31.0683 10.3224 31.0683M7.8502 33.0125H9.93745C10.2152 33.0125 10.4654 32.8448 10.5727 32.589C10.6799 32.3305 10.6222 32.0362 10.4242 31.841L8.06195 29.4788C7.9327 29.3495 7.75945 29.278 7.57795 29.278C7.19845 29.278 6.8877 29.586 6.8877 29.9655V32.05C6.8877 32.5808 7.31945 33.0125 7.8502 33.0125M11.7002 9.5H9.93745H7.8502H6.2002V11.7V34.8H11.7002V11.7V9.5ZM10.3224 14.1558C10.2537 14.1558 10.1849 14.131 10.1299 14.076L8.2242 12.1702C8.05095 11.997 8.1747 11.7 8.41945 11.7H10.0502C10.3527 11.7 10.6002 11.9475 10.6002 12.25V13.8808C10.6002 14.0458 10.4654 14.1558 10.3224 14.1558ZM7.8502 16.1C7.5477 16.1 7.3002 15.8525 7.3002 15.55V13.4628C7.3002 13.2978 7.43495 13.1878 7.57795 13.1878C7.6467 13.1878 7.71545 13.2125 7.77045 13.2675L10.1327 15.6298C10.3059 15.803 10.1822 16.1 9.93745 16.1H7.8502ZM10.3224 19.6558C10.2537 19.6558 10.1849 19.631 10.1299 19.576L8.2242 17.6702C8.05095 17.497 8.1747 17.2 8.41945 17.2H10.0502C10.3527 17.2 10.6002 17.4475 10.6002 17.75V19.3808C10.6002 19.5458 10.4654 19.6558 10.3224 19.6558ZM7.8502 21.6C7.5477 21.6 7.3002 21.3525 7.3002 21.05V18.9628C7.3002 18.7978 7.43495 18.6878 7.57795 18.6878C7.6467 18.6878 7.71545 18.7125 7.77045 18.7675L10.1327 21.1298C10.3059 21.303 10.1822 21.6 9.93745 21.6H7.8502ZM10.3224 25.1558C10.2537 25.1558 10.1849 25.131 10.1299 25.076L8.2242 23.1703C8.05095 22.997 8.1747 22.7 8.41945 22.7H10.0502C10.3527 22.7 10.6002 22.9475 10.6002 23.25V24.8808C10.6002 25.0458 10.4654 25.1558 10.3224 25.1558ZM7.8502 27.1C7.5477 27.1 7.3002 26.8525 7.3002 26.55V24.4628C7.3002 24.2978 7.43495 24.1878 7.57795 24.1878C7.6467 24.1878 7.71545 24.2125 7.77045 24.2675L10.1327 26.6298C10.3059 26.803 10.1822 27.1 9.93745 27.1H7.8502ZM10.3224 30.6558C10.2537 30.6558 10.1849 30.631 10.1299 30.576L8.2242 28.6703C8.05095 28.497 8.1747 28.2 8.41945 28.2H10.0502C10.3527 28.2 10.6002 28.4475 10.6002 28.75V30.3808C10.6002 30.5458 10.4654 30.6558 10.3224 30.6558ZM7.8502 32.6C7.5477 32.6 7.3002 32.3525 7.3002 32.05V29.9628C7.3002 29.7978 7.43495 29.6878 7.57795 29.6878C7.6467 29.6878 7.71545 29.7125 7.77045 29.7675L10.1327 32.1298C10.3059 32.303 10.1822 32.6 9.93745 32.6H7.8502Z" fill="#424242"/>
<path d="M7.3001 9.5H12.8001C12.8001 10.1077 12.3078 10.6 11.7001 10.6H6.2001C5.59235 10.6 5.1001 10.1077 5.1001 9.5H7.3001Z" fill="#FFB300"/>
<path d="M11.7001 33.7001H6.2001C5.59235 33.7001 5.1001 34.1923 5.1001 34.8001V37.0001H12.8001V34.8001C12.8001 34.1923 12.3078 33.7001 11.7001 33.7001Z" fill="#FFB300"/>
<path opacity="0.2" d="M33.1503 14.7084C33.2273 14.7084 33.2878 14.7689 33.2878 14.8459V18.1459C33.2878 18.2229 33.2273 18.2834 33.1503 18.2834H29.8503C29.7733 18.2834 29.7128 18.2229 29.7128 18.1459V14.8459C29.7128 14.7689 29.7733 14.7084 29.8503 14.7084H33.1503ZM29.9878 18.0084H33.0128V14.9834H29.9878V18.0084ZM33.1503 14.2959H29.8503C29.5478 14.2959 29.3003 14.5434 29.3003 14.8459V18.1459C29.3003 18.4484 29.5478 18.6959 29.8503 18.6959H33.1503C33.4528 18.6959 33.7003 18.4484 33.7003 18.1459V14.8459C33.7003 14.5406 33.4528 14.2959 33.1503 14.2959ZM30.4003 17.5959V15.3959H32.6003V17.5959H30.4003Z" fill="#424242"/>
<path opacity="0.2" d="M32.3004 9.08743C32.2179 9.59893 31.9429 10.2149 31.7752 10.2727L31.6184 10.3277L31.5442 10.4789C31.5304 10.5064 31.5194 10.5339 31.5084 10.5642L31.5194 10.3744L31.2252 10.2727C31.0574 10.2149 30.7824 9.59893 30.6999 9.08743H32.3004ZM31.4837 10.9794C31.5029 11.0564 31.5387 11.1279 31.5964 11.1967C31.6019 11.2049 31.6074 11.2104 31.6157 11.2187C31.5524 11.1829 31.5002 11.1389 31.4892 11.1169C31.4837 11.1032 31.4837 11.0372 31.4837 10.9822V10.9794ZM32.2894 11.8622C32.3169 11.9337 32.3279 12.0162 32.3252 12.1207C32.3142 12.5524 31.9649 12.9044 31.5359 12.9209C31.9732 12.9017 32.3252 12.5387 32.3252 12.0959C32.3252 12.0134 32.3142 11.9364 32.2894 11.8622ZM32.7377 8.67493H30.2627V8.81243C30.2627 9.33768 30.5982 10.4899 31.0877 10.6632L31.0712 10.9244C31.0712 11.0702 31.0629 11.1692 31.1069 11.2737C31.1784 11.4469 31.3737 11.5679 31.5002 11.6202C31.7092 11.7082 31.9127 11.8677 31.9127 12.0959C31.9127 12.3242 31.7284 12.5084 31.5002 12.5084C31.2719 12.5084 31.0877 12.3242 31.0877 12.0959C31.0877 11.9832 31.0547 11.9089 31.0079 11.8374C30.9777 11.7907 30.9254 11.7577 30.8594 11.7384C30.8127 11.7274 30.7687 11.7192 30.7247 11.7192C30.5982 11.7192 30.4854 11.7687 30.4029 11.8649C30.2709 12.0217 30.2517 12.2692 30.3507 12.4947C30.4277 12.6652 30.5514 12.8302 30.7329 13.0007C30.9584 13.2152 31.2362 13.3307 31.5139 13.3307H31.5194C32.1767 13.3279 32.7239 12.7862 32.7404 12.1289C32.7597 11.3507 32.1464 11.2104 31.9154 10.9327C31.8302 10.8309 31.9154 10.6632 31.9154 10.6632C32.4049 10.4899 32.7404 9.33768 32.7404 8.81243V8.67493H32.7377Z" fill="#424242"/>
<path opacity="0.2" d="M25.175 14.725V21.6C25.175 22.0565 25.5435 22.425 26 22.425H32.6C33.0565 22.425 33.425 22.0565 33.425 21.6V21.325H33.975V35.075H15.825V14.725H16.375V16.1C16.375 16.5565 16.7435 16.925 17.2 16.925H23.8C24.2565 16.925 24.625 16.5565 24.625 16.1V14.725H25.175ZM25.45 13.9H24.35C24.0475 13.9 23.8 14.1475 23.8 14.45V16.1H17.2V14.45C17.2 14.1475 16.9525 13.9 16.65 13.9H15.55C15.2475 13.9 15 14.1475 15 14.45V35.9H34.8V21.325C34.8 20.8685 34.4315 20.5 33.975 20.5H33.425C32.9685 20.5 32.6 20.8685 32.6 21.325V21.6H26V14.45C26 14.1475 25.7525 13.9 25.45 13.9Z" fill="#424242"/>
<path opacity="0.2" d="M32.05 29.8499V32.0499H26.55V29.8499H32.05ZM32.05 29.2999H26.55C26.2475 29.2999 26 29.5474 26 29.8499V32.0499C26 32.3524 26.2475 32.5999 26.55 32.5999H32.05C32.3525 32.5999 32.6 32.3524 32.6 32.0499V29.8499C32.6 29.5474 32.3525 29.2999 32.05 29.2999Z" fill="#424242"/>
<path opacity="0.2" d="M32.05 24.3499V26.5499H26.55V24.3499H32.05ZM32.05 23.7999H26.55C26.2475 23.7999 26 24.0474 26 24.3499V26.5499C26 26.8524 26.2475 27.0999 26.55 27.0999H32.05C32.3525 27.0999 32.6 26.8524 32.6 26.5499V24.3499C32.6 24.0474 32.3525 23.7999 32.05 23.7999Z" fill="#424242"/>
<path opacity="0.2" d="M23.2502 24.3499V26.5499H17.7502V24.3499H23.2502ZM23.2502 23.7999H17.7502C17.4477 23.7999 17.2002 24.0474 17.2002 24.3499V26.5499C17.2002 26.8524 17.4477 27.0999 17.7502 27.0999H23.2502C23.5527 27.0999 23.8002 26.8524 23.8002 26.5499V24.3499C23.8002 24.0474 23.5527 23.7999 23.2502 23.7999Z" fill="#424242"/>
<path opacity="0.2" d="M23.2502 29.8499V32.0499H17.7502V29.8499H23.2502ZM23.2502 29.2999H17.7502C17.4477 29.2999 17.2002 29.5474 17.2002 29.8499V32.0499C17.2002 32.3524 17.4477 32.5999 17.7502 32.5999H23.2502C23.5527 32.5999 23.8002 32.3524 23.8002 32.0499V29.8499C23.8002 29.5474 23.5527 29.2999 23.2502 29.2999Z" fill="#424242"/>
<path opacity="0.2" d="M23.2502 18.85V21.05H17.7502V18.85H23.2502ZM23.2502 18.3H17.7502C17.4477 18.3 17.2002 18.5475 17.2002 18.85V21.05C17.2002 21.3525 17.4477 21.6 17.7502 21.6H23.2502C23.5527 21.6 23.8002 21.3525 23.8002 21.05V18.85C23.8002 18.5475 23.5527 18.3 23.2502 18.3Z" fill="#424242"/>
<path opacity="0.2" d="M11.7001 4.4125C12.0796 4.4125 12.3876 4.7205 12.3876 5.1V5.364H5.5126V5.1C5.5126 4.7205 5.8206 4.4125 6.2001 4.4125H11.7001ZM11.7001 4H6.2001C5.59235 4 5.1001 4.49225 5.1001 5.1V5.7765H12.8001V5.1C12.8001 4.49225 12.3078 4 11.7001 4Z" fill="#424242"/>
<path opacity="0.2" d="M12.3876 9.23599V9.49999C12.3876 9.87949 12.0796 10.1875 11.7001 10.1875H6.2001C5.8206 10.1875 5.5126 9.87949 5.5126 9.49999V9.23599H12.3876ZM12.8001 8.82349H5.1001V9.49999C5.1001 10.1077 5.59235 10.6 6.2001 10.6H11.7001C12.3078 10.6 12.8001 10.1077 12.8001 9.49999V8.82349Z" fill="#424242"/>
<path d="M31.4999 15.693C31.2717 15.693 31.0874 15.6243 31.0874 15.396V12.25C31.0874 12.107 31.2717 11.942 31.4999 11.942C31.7282 11.942 31.9124 12.129 31.9124 12.25V15.396C31.9124 15.6243 31.7282 15.693 31.4999 15.693Z" fill="#FF9800"/>
<path d="M37 36.9999H4V35.8999C4 35.2922 4.49225 34.7999 5.1 34.7999H35.9C36.5078 34.7999 37 35.2922 37 35.8999V36.9999Z" fill="#FFB300"/>
<path d="M34.382 5.38335C34.2033 5.20185 33.9558 5.1001 33.7 5.1001H5.1C4.49225 5.1001 4 5.59235 4 6.2001V8.4001C4 9.00785 4.49225 9.5001 5.1 9.5001H36.0348C36.5683 9.5001 37 9.06835 37 8.53485V8.4001C37 8.14435 36.8983 7.8996 36.7168 7.7181L34.382 5.38335ZM5.1 7.8501V6.7501C5.1 6.4476 5.3475 6.2001 5.65 6.2001H7.85C8.1525 6.2001 8.4 6.4476 8.4 6.7501V7.8501C8.4 8.1526 8.1525 8.4001 7.85 8.4001H5.65C5.3475 8.4001 5.1 8.1526 5.1 7.8501ZM9.5 7.8501V6.7501C9.5 6.4476 9.7475 6.2001 10.05 6.2001H12.25C12.5525 6.2001 12.8 6.4476 12.8 6.7501V7.8501C12.8 8.1526 12.5525 8.4001 12.25 8.4001H10.05C9.7475 8.4001 9.5 8.1526 9.5 7.8501ZM13.9 7.8501V6.7501C13.9 6.4476 14.1475 6.2001 14.45 6.2001H16.65C16.9525 6.2001 17.2 6.4476 17.2 6.7501V7.8501C17.2 8.1526 16.9525 8.4001 16.65 8.4001H14.45C14.1475 8.4001 13.9 8.1526 13.9 7.8501ZM18.3 7.8501V6.7501C18.3 6.4476 18.5475 6.2001 18.85 6.2001H21.05C21.3525 6.2001 21.6 6.4476 21.6 6.7501V7.8501C21.6 8.1526 21.3525 8.4001 21.05 8.4001H18.85C18.5475 8.4001 18.3 8.1526 18.3 7.8501ZM22.7 7.8501V6.7501C22.7 6.4476 22.9475 6.2001 23.25 6.2001H25.45C25.7525 6.2001 26 6.4476 26 6.7501V7.8501C26 8.1526 25.7525 8.4001 25.45 8.4001H23.25C22.9475 8.4001 22.7 8.1526 22.7 7.8501ZM27.1 7.8501V6.7501C27.1 6.4476 27.3475 6.2001 27.65 6.2001H29.85C30.1525 6.2001 30.4 6.4476 30.4 6.7501V7.8501C30.4 8.1526 30.1525 8.4001 29.85 8.4001H27.65C27.3475 8.4001 27.1 8.1526 27.1 7.8501ZM31.5 7.8501V6.7501C31.5 6.4476 31.7475 6.2001 32.05 6.2001H33.4168C33.5625 6.2001 33.7027 6.25785 33.8045 6.36235L34.9045 7.46235C35.251 7.80885 35.0063 8.4001 34.5168 8.4001H32.05C31.7475 8.4001 31.5 8.1526 31.5 7.8501Z" fill="url(#paint2_linear_649_90)"/>
<path opacity="0.2" d="M11.7 34.5251C11.8513 34.5251 11.975 34.6488 11.975 34.8001C11.975 35.2566 12.3435 35.6251 12.8 35.6251H35.9C36.0513 35.6251 36.175 35.7488 36.175 35.9001V36.1751H4.825V35.9001C4.825 35.7488 4.94875 35.6251 5.1 35.6251C5.5565 35.6251 5.925 35.2566 5.925 34.8001C5.925 34.6488 6.04875 34.5251 6.2 34.5251H11.7ZM11.7 33.7001H6.2C5.59225 33.7001 5.1 34.1923 5.1 34.8001C4.49225 34.8001 4 35.2923 4 35.9001V37.0001H37V35.9001C37 35.2923 36.5078 34.8001 35.9 34.8001H12.8C12.8 34.1923 12.3078 33.7001 11.7 33.7001Z" fill="#424242"/>
<path opacity="0.2" d="M33.7 5.5126C33.8485 5.5126 33.986 5.57035 34.0905 5.67485L36.4253 8.0096C36.5298 8.1141 36.5875 8.2516 36.5875 8.4001V8.53485C36.5875 8.8401 36.34 9.0876 36.0348 9.0876H5.1C4.7205 9.0876 4.4125 8.7796 4.4125 8.4001V6.2001C4.4125 5.8206 4.7205 5.5126 5.1 5.5126H33.7ZM32.05 8.8126H34.5168C34.9073 8.8126 35.2565 8.57885 35.405 8.2186C35.5535 7.85835 35.4738 7.44585 35.196 7.17085L34.096 6.07085C33.9145 5.88935 33.6725 5.7876 33.4168 5.7876H32.05C31.5193 5.7876 31.0875 6.21935 31.0875 6.7501V7.8501C31.0875 8.38085 31.5193 8.8126 32.05 8.8126ZM27.65 8.8126H29.85C30.3808 8.8126 30.8125 8.38085 30.8125 7.8501V6.7501C30.8125 6.21935 30.3808 5.7876 29.85 5.7876H27.65C27.1193 5.7876 26.6875 6.21935 26.6875 6.7501V7.8501C26.6875 8.38085 27.1193 8.8126 27.65 8.8126ZM23.25 8.8126H25.45C25.9808 8.8126 26.4125 8.38085 26.4125 7.8501V6.7501C26.4125 6.21935 25.9808 5.7876 25.45 5.7876H23.25C22.7193 5.7876 22.2875 6.21935 22.2875 6.7501V7.8501C22.2875 8.38085 22.7193 8.8126 23.25 8.8126ZM18.85 8.8126H21.05C21.5808 8.8126 22.0125 8.38085 22.0125 7.8501V6.7501C22.0125 6.21935 21.5808 5.7876 21.05 5.7876H18.85C18.3193 5.7876 17.8875 6.21935 17.8875 6.7501V7.8501C17.8875 8.38085 18.3193 8.8126 18.85 8.8126ZM14.45 8.8126H16.65C17.1808 8.8126 17.6125 8.38085 17.6125 7.8501V6.7501C17.6125 6.21935 17.1808 5.7876 16.65 5.7876H14.45C13.9193 5.7876 13.4875 6.21935 13.4875 6.7501V7.8501C13.4875 8.38085 13.9193 8.8126 14.45 8.8126ZM10.05 8.8126H12.25C12.7808 8.8126 13.2125 8.38085 13.2125 7.8501V6.7501C13.2125 6.21935 12.7808 5.7876 12.25 5.7876H10.05C9.51925 5.7876 9.0875 6.21935 9.0875 6.7501V7.8501C9.0875 8.38085 9.51925 8.8126 10.05 8.8126ZM5.65 8.8126H7.85C8.38075 8.8126 8.8125 8.38085 8.8125 7.8501V6.7501C8.8125 6.21935 8.38075 5.7876 7.85 5.7876H5.65C5.11925 5.7876 4.6875 6.21935 4.6875 6.7501V7.8501C4.6875 8.38085 5.11925 8.8126 5.65 8.8126ZM33.7 5.1001H5.1C4.49225 5.1001 4 5.59235 4 6.2001V8.4001C4 9.00785 4.49225 9.5001 5.1 9.5001H36.0348C36.5683 9.5001 37 9.06835 37 8.53485V8.4001C37 8.14435 36.8983 7.8996 36.7168 7.7181L34.382 5.38335C34.2033 5.20185 33.9558 5.1001 33.7 5.1001V5.1001ZM32.05 8.4001C31.7475 8.4001 31.5 8.1526 31.5 7.8501V6.7501C31.5 6.4476 31.7475 6.2001 32.05 6.2001H33.4168C33.5625 6.2001 33.7027 6.25785 33.8045 6.36235L34.9045 7.46235C35.251 7.80885 35.0063 8.4001 34.5168 8.4001H32.05ZM27.65 8.4001C27.3475 8.4001 27.1 8.1526 27.1 7.8501V6.7501C27.1 6.4476 27.3475 6.2001 27.65 6.2001H29.85C30.1525 6.2001 30.4 6.4476 30.4 6.7501V7.8501C30.4 8.1526 30.1525 8.4001 29.85 8.4001H27.65ZM23.25 8.4001C22.9475 8.4001 22.7 8.1526 22.7 7.8501V6.7501C22.7 6.4476 22.9475 6.2001 23.25 6.2001H25.45C25.7525 6.2001 26 6.4476 26 6.7501V7.8501C26 8.1526 25.7525 8.4001 25.45 8.4001H23.25ZM18.85 8.4001C18.5475 8.4001 18.3 8.1526 18.3 7.8501V6.7501C18.3 6.4476 18.5475 6.2001 18.85 6.2001H21.05C21.3525 6.2001 21.6 6.4476 21.6 6.7501V7.8501C21.6 8.1526 21.3525 8.4001 21.05 8.4001H18.85ZM14.45 8.4001C14.1475 8.4001 13.9 8.1526 13.9 7.8501V6.7501C13.9 6.4476 14.1475 6.2001 14.45 6.2001H16.65C16.9525 6.2001 17.2 6.4476 17.2 6.7501V7.8501C17.2 8.1526 16.9525 8.4001 16.65 8.4001H14.45ZM10.05 8.4001C9.7475 8.4001 9.5 8.1526 9.5 7.8501V6.7501C9.5 6.4476 9.7475 6.2001 10.05 6.2001H12.25C12.5525 6.2001 12.8 6.4476 12.8 6.7501V7.8501C12.8 8.1526 12.5525 8.4001 12.25 8.4001H10.05ZM5.65 8.4001C5.3475 8.4001 5.1 8.1526 5.1 7.8501V6.7501C5.1 6.4476 5.3475 6.2001 5.65 6.2001H7.85C8.1525 6.2001 8.4 6.4476 8.4 6.7501V7.8501C8.4 8.1526 8.1525 8.4001 7.85 8.4001H5.65Z" fill="#424242"/>
<path opacity="0.2" d="M31.4999 12.217C31.5632 12.217 31.6154 12.2583 31.6374 12.283V15.396V15.4015C31.6209 15.407 31.5797 15.418 31.4999 15.418C31.4202 15.418 31.3789 15.407 31.3624 15.4015V15.396V12.272C31.3817 12.2528 31.4312 12.217 31.4999 12.217ZM31.4999 11.942C31.2717 11.942 31.0874 12.107 31.0874 12.25V15.396C31.0874 15.6243 31.2717 15.693 31.4999 15.693C31.7282 15.693 31.9124 15.6243 31.9124 15.396V12.25C31.9124 12.129 31.7282 11.942 31.4999 11.942Z" fill="#424242"/>
<defs>
<radialGradient id="paint0_radial_649_90" cx="0" cy="0" r="1" gradientUnits="userSpaceOnUse" gradientTransform="translate(25.6334 16.6041) scale(18.6571)">
<stop stop-color="#E0E0E0"/>
<stop offset="0.2294" stop-color="#D7D7D7"/>
<stop offset="0.6034" stop-color="#BFBFBF"/>
<stop offset="1" stop-color="#9E9E9E"/>
</radialGradient>
<linearGradient id="paint1_linear_649_90" x1="8.95019" y1="10.6916" x2="8.95019" y2="34.2197" gradientUnits="userSpaceOnUse">
<stop offset="0.0166" stop-color="#FFA726"/>
<stop offset="0.4003" stop-color="#FC991A"/>
<stop offset="1" stop-color="#F57C00"/>
</linearGradient>
<linearGradient id="paint2_linear_649_90" x1="20.5" y1="5.00844" x2="20.5" y2="11.2164" gradientUnits="userSpaceOnUse">
<stop offset="0.0166" stop-color="#FFA726"/>
<stop offset="0.4003" stop-color="#FC991A"/>
<stop offset="1" stop-color="#F57C00"/>
</linearGradient>
</defs>
</svg>
