<svg width="37" height="36" viewBox="0 0 37 36" fill="none" xmlns="http://www.w3.org/2000/svg">
<path d="M33.887 35.5556C33.887 33.5263 32.7222 29.5516 30.3597 28.1377L30.0234 35.9999H30.4737H30.924H33.0164H33.4667H33.917L33.887 35.5556Z" fill="url(#paint0_linear_637_162)"/>
<path d="M13.8452 27.5222C13.8332 27.5222 13.8212 27.5222 13.8092 27.5222C7.03969 27.5312 0 29.7077 0 35.0452V35.9999H0.4503H0.9006H26.7178H27.1681H27.6184V35.0452C27.6214 30.0139 20.6448 27.5222 13.8452 27.5222Z" fill="url(#paint1_linear_637_162)"/>
<path d="M34.2138 15.2262L30.8785 15.1302C29.6177 15.1031 28.576 16.1478 28.552 17.4687L28.3599 28.384L29.5006 28.411L29.6927 17.4957C29.7048 16.8383 30.2271 16.3129 30.8545 16.3249L34.1897 16.421L34.2138 15.2262Z" fill="#9E9E9E"/>
<path d="M30.8152 16.8352L30.3679 16.8292C30.0347 16.8232 29.7675 16.538 29.7705 16.1897L29.7765 15.5263C29.7795 15.1781 30.0527 14.8989 30.3859 14.9049L30.8332 14.9109C31.1665 14.9169 31.4336 15.2021 31.4306 15.5503L31.4246 16.2138C31.4186 16.559 31.1454 16.8382 30.8152 16.8352Z" fill="#504F4F"/>
<path d="M29.7502 35.6999L29.8673 25.8564C29.8703 25.5412 29.468 25.28 28.9667 25.271C28.4654 25.262 28.0571 25.5141 28.0541 25.8294L27.937 35.6969H29.7502V35.6999Z" fill="#616161"/>
<path d="M30.2517 36.0001L30.3448 27.3063C30.3508 26.7419 29.9455 26.2796 29.4412 26.2706L28.4625 26.2586C27.9582 26.2526 27.5409 26.7029 27.5379 27.2673L27.4448 35.9971L30.2517 36.0001Z" fill="#504F4F"/>
<path d="M32.5751 17.2404C31.7556 17.2404 30.876 16.7241 30.876 15.5923C30.876 14.3495 31.8336 14.0193 32.401 14.0193C33.7519 14.0193 35.1568 15.154 35.6582 15.6043C35.1358 16.0606 33.6919 17.2404 32.5751 17.2404Z" fill="#40C4FF"/>
<path d="M32.3978 14.2685C33.5055 14.2685 34.6763 15.1061 35.2707 15.6014C34.5862 16.1748 33.4245 16.9883 32.5719 16.9883C32.0345 16.9883 31.1249 16.6941 31.1249 15.5894C31.1249 14.5477 31.9265 14.2685 32.3978 14.2685M32.3978 13.7642C31.6293 13.7642 30.6206 14.2655 30.6206 15.5894C30.6206 16.9133 31.6713 17.4896 32.5719 17.4896C34.0729 17.4896 36.0242 15.6014 36.0242 15.6014C36.0242 15.6014 34.199 13.7642 32.3978 13.7642Z" fill="#2962FF"/>
<path d="M32.6106 14.89C33.6643 15.2562 34.1776 15.5864 34.1776 15.5864C34.1776 15.5864 33.8414 15.9527 32.7547 16.1898C31.9471 16.367 31.4218 16.0668 31.4278 15.5504C31.4368 15.0371 32.0672 14.7008 32.6106 14.89V14.89Z" fill="#84FFFF"/>
<path d="M32.9825 31.8151C32.9405 31.3888 32.7934 30.9836 32.6523 30.6443C32.211 29.5726 31.7096 28.7381 30.5659 27.8945C29.4041 27.0359 28.1252 26.8648 27.5489 26.9609C26.9004 27.066 26.4862 27.3211 26.315 27.7174C26.186 28.0206 26.234 28.3268 26.312 28.5549C25.9818 28.669 25.5375 28.8942 25.3964 29.2994C25.2283 29.7738 25.3634 30.158 25.5585 30.4222C25.2764 30.6023 24.9251 30.8875 24.823 31.2447C24.688 31.7221 25.1263 32.2504 25.4204 32.5416C25.2764 32.7337 25.1052 32.9919 25.0662 33.181C24.8621 34.1897 26.1709 34.7541 26.9755 34.9282C27.1046 34.9552 27.2337 34.8982 27.2997 34.7841L27.5759 34.3038C28.6056 34.622 30.1096 35.0483 30.737 35.0483C30.824 35.0483 30.8931 35.0393 30.9411 35.0243C31.5205 34.8231 31.8958 34.3518 32.226 33.9375C32.277 33.8745 32.328 33.8084 32.3791 33.7454C32.8324 33.199 33.0515 32.4966 32.9825 31.8151V31.8151Z" fill="#F44336"/>
<path d="M14.6143 36.0001L16.6136 30.1702H10.6396L13.0082 36.0001H14.6143Z" fill="#F5F5F5"/>
<path d="M13.8122 26.5767H11.0864V29.5727C11.0864 30.9266 12.1972 32.0253 13.5661 32.0253H14.0614C15.4303 32.0253 16.5411 30.9266 16.5411 29.5727V26.5767H13.8122Z" fill="#E59600"/>
<path d="M22.0132 14.0015H19.8007H7.81971H5.60723C3.83905 14.0015 2.39209 15.5415 2.39209 17.4267C2.39209 19.312 3.83905 20.852 5.60723 20.852H7.81971H19.8007H22.0132C23.7813 20.852 25.2283 19.309 25.2283 17.4267C25.2283 15.5445 23.7813 14.0015 22.0132 14.0015V14.0015Z" fill="#E59600"/>
<path d="M13.8127 2.18237C8.58922 2.18237 3.75 7.76909 3.75 15.8115C3.75 23.8088 8.73632 27.7624 13.8127 27.7624C18.8891 27.7624 23.8754 23.8088 23.8754 15.8115C23.8754 7.76909 19.0362 2.18237 13.8127 2.18237V2.18237Z" fill="#FFCA28"/>
<path d="M9.06592 18.0481C9.8833 18.0481 10.5459 17.3627 10.5459 16.5171C10.5459 15.6715 9.8833 14.9861 9.06592 14.9861C8.24855 14.9861 7.58594 15.6715 7.58594 16.5171C7.58594 17.3627 8.24855 18.0481 9.06592 18.0481Z" fill="#404040"/>
<path d="M18.4146 18.0481C19.2319 18.0481 19.8945 17.3627 19.8945 16.5171C19.8945 15.6715 19.2319 14.9861 18.4146 14.9861C17.5972 14.9861 16.9346 15.6715 16.9346 16.5171C16.9346 17.3627 17.5972 18.0481 18.4146 18.0481Z" fill="#404040"/>
<path d="M11.1644 14.1364C10.8702 13.6921 10.1918 13.0466 8.87692 13.0466C7.56205 13.0466 6.88059 13.6921 6.5894 14.1364C6.46031 14.3315 6.49333 14.5596 6.58339 14.6947C6.66745 14.8208 6.91361 14.9409 7.18379 14.8358C7.45397 14.7308 7.98833 14.4155 8.87692 14.4095C9.76852 14.4155 10.2999 14.7308 10.57 14.8358C10.8432 14.9409 11.0894 14.8238 11.1735 14.6947C11.2605 14.5596 11.2935 14.3315 11.1644 14.1364Z" fill="#6D4C41"/>
<path d="M21.0351 14.1364C20.7409 13.6921 20.0624 13.0466 18.7475 13.0466C17.4327 13.0466 16.7512 13.6921 16.46 14.1364C16.3309 14.3315 16.3639 14.5596 16.454 14.6947C16.5381 14.8208 16.7842 14.9409 17.0574 14.8358C17.3306 14.7308 17.8619 14.4155 18.7505 14.4095C19.6421 14.4155 20.1735 14.7308 20.4437 14.8358C20.7168 14.9409 20.963 14.8238 21.0441 14.6947C21.1341 14.5596 21.1671 14.3315 21.0351 14.1364V14.1364Z" fill="#6D4C41"/>
<path d="M14.9685 19.2909C14.9354 19.2789 14.9054 19.2698 14.8724 19.2668H12.747C12.714 19.2698 12.6809 19.2789 12.6509 19.2909C12.4588 19.3689 12.3537 19.567 12.4438 19.7802C12.5338 19.9933 12.9571 20.5877 13.8097 20.5877C14.6623 20.5877 15.0855 19.9903 15.1756 19.7802C15.2687 19.57 15.1636 19.3689 14.9685 19.2909Z" fill="#E59600"/>
<path d="M16.3727 21.7196C15.4151 22.287 12.281 22.287 11.3264 21.7196C10.777 21.3924 10.2156 21.8937 10.4438 22.3921C10.6689 22.8814 12.3771 24.0191 13.8571 24.0191C15.337 24.0191 17.0242 22.8814 17.2493 22.3921C17.4745 21.8907 16.9191 21.3924 16.3727 21.7196Z" fill="#795548"/>
<path d="M9.52271 31.3348C9.62177 31.3348 9.71784 31.3828 9.77788 31.4699L12.8339 35.9999H13.008L11.0868 27.5913L8.84426 27.9365L6.77588 32.3945L9.40863 31.3558C9.44466 31.3408 9.48368 31.3348 9.52271 31.3348V31.3348Z" fill="url(#paint2_linear_637_162)"/>
<path d="M18.1015 31.3348C18.0025 31.3348 17.9064 31.3828 17.8464 31.4699L14.7903 35.9999H14.6162L16.5375 27.5913L18.78 27.9365L20.8484 32.3945L18.2156 31.3558C18.1766 31.3408 18.1376 31.3348 18.1015 31.3348V31.3348Z" fill="url(#paint3_linear_637_162)"/>
<path d="M13.8151 0.357178C13.8121 0.357178 13.8121 0.357178 13.8091 0.357178C13.8061 0.357178 13.8061 0.357178 13.8031 0.357178C0.164971 0.429226 2.95983 16.0096 2.95983 16.0096C2.95983 16.0096 3.57224 17.6157 3.85143 18.3241C3.89045 18.4262 4.04055 18.4142 4.06457 18.3091C4.35576 17.0063 5.40346 12.3862 5.93181 10.9843C6.24402 10.1557 7.10259 9.67538 7.97317 9.83449C9.30606 10.0746 11.4375 10.3749 13.785 10.3749H13.8091C13.8091 10.3749 13.8271 10.3749 13.8331 10.3749C16.1836 10.3749 18.3121 10.0747 19.648 9.83149C20.5185 9.67238 21.3771 10.1557 21.6863 10.9813C22.2117 12.3802 23.2534 16.9732 23.5475 18.2941C23.5716 18.4022 23.7217 18.4112 23.7607 18.3091L24.6553 16.0066C24.6613 16.0096 27.4562 0.429226 13.8151 0.357178V0.357178Z" fill="#543930"/>
<path d="M24.6613 16.0096C24.6613 16.0096 27.4561 0.429226 13.815 0.357178C13.812 0.357178 13.812 0.357178 13.809 0.357178C13.806 0.357178 13.806 0.357178 13.803 0.357178C13.5899 0.357178 13.3828 0.363182 13.1786 0.372188C12.7733 0.3902 12.3801 0.42022 12.0018 0.46525C11.9988 0.46525 11.9928 0.46525 11.9898 0.46525C11.9628 0.468252 11.9388 0.474256 11.9118 0.477258C0.435131 1.92122 2.95981 16.0096 2.95981 16.0096L3.85441 18.3151C3.89343 18.4172 4.04053 18.4082 4.06455 18.3001C4.35874 16.9823 5.40344 12.3832 5.93179 10.9843C6.244 10.1557 7.10257 9.67538 7.97315 9.83449C9.30604 10.0746 11.4375 10.3749 13.785 10.3749H13.809C13.809 10.3749 13.8271 10.3749 13.8331 10.3749C16.1836 10.3749 18.312 10.0747 19.6479 9.83149C20.5185 9.67238 21.3771 10.1557 21.6863 10.9813C22.2146 12.3862 23.2623 17.0153 23.5535 18.3121C23.5775 18.4202 23.7246 18.4292 23.7637 18.3271C24.0459 17.6217 24.6613 16.0096 24.6613 16.0096V16.0096Z" fill="url(#paint4_radial_637_162)"/>
<path opacity="0.74" d="M22.4248 5.28952H5.19629V0.684456C5.19629 0.684456 7.44479 0 13.836 0C17.7837 0 22.4278 0.732488 22.4278 0.732488L22.4248 5.28952Z" fill="#423F3E"/>
<path d="M2.40404 12.008H1.20324C0.539799 12.008 0.00244141 11.4707 0.00244141 10.8072V8.40563C0.00244141 7.74219 0.539799 7.20483 1.20324 7.20483H2.40404C3.06748 7.20483 3.60484 7.74219 3.60484 8.40563V10.8072C3.60484 11.4707 3.06448 12.008 2.40404 12.008Z" fill="#807978"/>
<path d="M26.4211 12.008H25.2203C24.5569 12.008 24.0195 11.4707 24.0195 10.8072V8.40563C24.0195 7.74219 24.5569 7.20483 25.2203 7.20483H26.4211C27.0846 7.20483 27.6219 7.74219 27.6219 8.40563V10.8072C27.6219 11.4707 27.0816 12.008 26.4211 12.008Z" fill="#807978"/>
<path d="M13.6919 8.63989C9.69026 8.63989 4.36771 10.5642 1.9541 11.9331V14.8991C4.22061 12.9688 8.79266 11.4558 13.6919 11.4558C18.6452 11.4558 22.4037 13.335 25.6459 14.9441C25.6609 14.3017 25.754 11.8851 25.4387 11.1165C23.0221 9.71761 17.7386 8.63989 13.6919 8.63989Z" fill="#807978"/>
<path d="M25.8053 8.26449C25.7903 7.94328 25.7213 7.62507 25.6012 7.32787L23.2596 1.519C23.0855 1.16476 22.7673 0.864562 22.35 0.60639C22.287 0.567364 22.2089 0.618398 22.2089 0.693448V3.41626C22.2089 3.70746 21.9748 3.94161 21.6896 3.94161H5.93207C5.64387 3.94161 5.41272 3.70746 5.41272 3.41626V0.642414C5.41272 0.588378 5.35868 0.555356 5.31666 0.582374C4.87836 0.84655 4.54514 1.15576 4.36502 1.522L2.02346 7.33087C1.90338 7.63107 1.83434 7.94628 1.81933 8.26749L0.603516 15.6524C0.603516 15.6524 0.60952 15.6974 0.627532 15.7665C0.672562 15.9526 0.798646 16.3249 1.12887 16.511C1.12887 16.511 4.49411 10.6991 13.311 10.0327C13.6442 10.0087 13.9804 10.0087 14.3137 10.0327C23.1305 10.6991 26.4958 16.511 26.4958 16.511C26.826 16.3249 26.9521 15.9526 26.9971 15.7665C27.0151 15.6974 27.0211 15.6524 27.0211 15.6524L25.8053 8.26449Z" fill="url(#paint5_linear_637_162)"/>
<path d="M19.0927 7.21075C18.9276 7.21075 18.7925 7.10868 18.7925 6.9826V5.57166C18.7925 5.44557 18.9276 5.34351 19.0927 5.34351C19.2578 5.34351 19.3929 5.44557 19.3929 5.57166V6.9826C19.3929 7.10568 19.2578 7.21075 19.0927 7.21075Z" fill="#807978"/>
<path d="M16.2909 7.76607C16.1258 7.76607 15.9907 7.664 15.9907 7.53792V5.01624C15.9907 4.89015 16.1258 4.78809 16.2909 4.78809C16.456 4.78809 16.5911 4.89015 16.5911 5.01624V7.53792C16.5911 7.661 16.456 7.76607 16.2909 7.76607V7.76607Z" fill="#807978"/>
<path d="M13.8114 7.31591C13.6463 7.31591 13.5112 7.21384 13.5112 7.08776V5.46668C13.5112 5.34059 13.6463 5.23853 13.8114 5.23853C13.9765 5.23853 14.1116 5.34059 14.1116 5.46668V7.08776C14.1116 7.21384 13.9765 7.31591 13.8114 7.31591V7.31591Z" fill="#807978"/>
<path d="M8.53213 7.21075C8.36702 7.21075 8.23193 7.10868 8.23193 6.9826V5.57166C8.23193 5.44557 8.36702 5.34351 8.53213 5.34351C8.69724 5.34351 8.83233 5.44557 8.83233 5.57166V6.9826C8.83233 7.10568 8.69724 7.21075 8.53213 7.21075Z" fill="#807978"/>
<path d="M11.33 7.76607C11.1649 7.76607 11.0298 7.664 11.0298 7.53792V5.01624C11.0298 4.89015 11.1649 4.78809 11.33 4.78809C11.4951 4.78809 11.6302 4.89015 11.6302 5.01624V7.53792C11.6302 7.661 11.4951 7.76607 11.33 7.76607V7.76607Z" fill="#807978"/>
<path d="M1.12536 16.511C1.12536 16.511 4.58666 10.48 13.8088 9.99965C23.031 10.48 26.4923 16.511 26.4923 16.511C26.8225 16.3249 26.9486 15.9526 26.9936 15.7665C26.123 14.0553 23.1991 10.4259 16.0513 8.93994C15.0186 8.7238 12.65 8.7238 11.6173 8.93994C4.47259 10.4259 1.4946 14.0553 0.624023 15.7665C0.669053 15.9526 0.798139 16.3249 1.12536 16.511V16.511Z" fill="url(#paint6_linear_637_162)"/>
<defs>
<linearGradient id="paint0_linear_637_162" x1="30.0222" y1="32.0685" x2="33.9206" y2="32.0685" gradientUnits="userSpaceOnUse">
<stop offset="0.0032" stop-color="#448AFF"/>
<stop offset="0.4042" stop-color="#3B7DFF"/>
<stop offset="1" stop-color="#2962FF"/>
</linearGradient>
<linearGradient id="paint1_linear_637_162" x1="0.0018012" y1="31.7613" x2="27.6202" y2="31.7613" gradientUnits="userSpaceOnUse">
<stop offset="0.0032" stop-color="#448AFF"/>
<stop offset="0.4042" stop-color="#3B7DFF"/>
<stop offset="1" stop-color="#2962FF"/>
</linearGradient>
<linearGradient id="paint2_linear_637_162" x1="9.89165" y1="27.5925" x2="9.89165" y2="36.37" gradientUnits="userSpaceOnUse">
<stop stop-color="#1565C0"/>
<stop offset="0.6821" stop-color="#0D47A1"/>
<stop offset="1" stop-color="#0D47A1"/>
</linearGradient>
<linearGradient id="paint3_linear_637_162" x1="17.7302" y1="27.5925" x2="17.7302" y2="36.37" gradientUnits="userSpaceOnUse">
<stop stop-color="#1565C0"/>
<stop offset="0.6821" stop-color="#0D47A1"/>
<stop offset="1" stop-color="#0D47A1"/>
</linearGradient>
<radialGradient id="paint4_radial_637_162" cx="0" cy="0" r="1" gradientUnits="userSpaceOnUse" gradientTransform="translate(13.811 13.2861) scale(11.4353 12.9013)">
<stop offset="0.7945" stop-color="#6D4C41" stop-opacity="0"/>
<stop offset="1" stop-color="#6D4C41"/>
</radialGradient>
<linearGradient id="paint5_linear_637_162" x1="13.8111" y1="0.0998629" x2="13.8111" y2="14.2601" gradientUnits="userSpaceOnUse">
<stop stop-color="#BDBDBD"/>
<stop offset="1" stop-color="#757575"/>
</linearGradient>
<linearGradient id="paint6_linear_637_162" x1="13.8106" y1="8.77777" x2="13.8106" y2="16.5652" gradientUnits="userSpaceOnUse">
<stop stop-color="#BDBDBD"/>
<stop offset="1" stop-color="#757575"/>
</linearGradient>
</defs>
</svg>
