<svg width="41" height="40" viewBox="0 0 41 40" fill="none" xmlns="http://www.w3.org/2000/svg">
<path d="M27.614 38H13.568C12.155 38 11 36.845 11 35.432V4.568C11 3.155 12.155 2 13.568 2H27.611C29.024 2 30.179 3.155 30.179 4.568V35.429C30.182 36.845 29.027 38 27.614 38V38Z" fill="url(#paint0_linear_666_197)"/>
<path opacity="0.2" d="M27.614 2.9C28.535 2.9 29.282 3.65 29.282 4.568V35.429C29.282 36.35 28.532 37.097 27.614 37.097H13.568C12.647 37.097 11.9 36.347 11.9 35.429V4.568C11.9 3.647 12.65 2.9 13.568 2.9H27.614ZM27.614 2H13.568C12.155 2 11 3.155 11 4.568V35.429C11 36.842 12.155 37.997 13.568 37.997H27.611C29.024 37.997 30.179 36.842 30.179 35.429V4.568C30.182 3.155 29.027 2 27.614 2V2Z" fill="#EEEEEE"/>
<path d="M27.3707 33.2087H13.8167C13.5917 33.2087 13.4087 33.0257 13.4087 32.8007V7.2017C13.4087 6.9767 13.5917 6.7937 13.8167 6.7937H27.3707C27.5957 6.7937 27.7787 6.9767 27.7787 7.2017V32.8007C27.7787 33.0227 27.5957 33.2087 27.3707 33.2087Z" fill="url(#paint1_linear_666_197)"/>
<path d="M23.4596 5.19482H17.7236C17.5166 5.19482 17.3486 5.02682 17.3486 4.81982C17.3486 4.61282 17.5166 4.44482 17.7236 4.44482H23.4596C23.6666 4.44482 23.8346 4.61282 23.8346 4.81982C23.8346 5.02682 23.6666 5.19482 23.4596 5.19482Z" fill="#212121"/>
<path d="M23.4596 35.5549H17.7236C17.5166 35.5549 17.3486 35.3869 17.3486 35.1799C17.3486 34.9729 17.5166 34.8049 17.7236 34.8049H23.4596C23.6666 34.8049 23.8346 34.9729 23.8346 35.1799C23.8346 35.3839 23.6666 35.5549 23.4596 35.5549Z" fill="black"/>
<path d="M26.4077 10.3941H14.8187C14.7047 10.3941 14.6147 10.3041 14.6147 10.1901V8.21914C14.6147 8.10514 14.7047 8.01514 14.8187 8.01514H26.4047C26.5187 8.01514 26.6087 8.10514 26.6087 8.21914V10.1901C26.6117 10.3011 26.5187 10.3941 26.4077 10.3941Z" fill="#F5F5F5"/>
<path d="M16.3253 26H15.2513C14.8883 26 14.5913 25.706 14.5913 25.34V24.266C14.5913 23.903 14.8853 23.606 15.2513 23.606H16.3253C16.6883 23.606 16.9853 23.9 16.9853 24.266V25.34C16.9853 25.706 16.6913 26 16.3253 26Z" fill="#159E5C"/>
<path d="M16.3253 29.6001H15.2513C14.8883 29.6001 14.5913 29.3061 14.5913 28.9401V27.8661C14.5913 27.5031 14.8853 27.2061 15.2513 27.2061H16.3253C16.6883 27.2061 16.9853 27.5001 16.9853 27.8661V28.9401C16.9853 29.3061 16.6913 29.6001 16.3253 29.6001Z" fill="#FB5352"/>
<path d="M19.5201 29.6001H18.4461C18.0831 29.6001 17.7861 29.3061 17.7861 28.9401V27.8661C17.7861 27.5031 18.0801 27.2061 18.4461 27.2061H19.5201C19.8831 27.2061 20.1801 27.5001 20.1801 27.8661V28.9401C20.1801 29.3061 19.8831 29.6001 19.5201 29.6001Z" fill="#4587F5"/>
<path d="M22.8078 29.6001H21.7308C21.3678 29.6001 21.0708 29.3061 21.0708 28.9401V27.8661C21.0708 27.5031 21.3648 27.2061 21.7308 27.2061H22.8048C23.1678 27.2061 23.4648 27.5001 23.4648 27.8661V28.9401C23.4678 29.3061 23.1708 29.6001 22.8078 29.6001Z" fill="#159E5C"/>
<path d="M25.9069 29.6001H24.8329C24.4699 29.6001 24.1729 29.3061 24.1729 28.9401V27.8661C24.1729 27.5031 24.4669 27.2061 24.8329 27.2061H25.9069C26.2699 27.2061 26.5669 27.5001 26.5669 27.8661V28.9401C26.5669 29.3061 26.2699 29.6001 25.9069 29.6001Z" fill="#FECD41"/>
<path d="M19.5201 26H18.4461C18.0831 26 17.7861 25.706 17.7861 25.34V24.266C17.7861 23.903 18.0801 23.606 18.4461 23.606H19.5201C19.8831 23.606 20.1801 23.9 20.1801 24.266V25.34C20.1801 25.706 19.8831 26 19.5201 26Z" fill="#FECD41"/>
<path d="M22.8078 26H21.7308C21.3678 26 21.0708 25.706 21.0708 25.34V24.266C21.0708 23.903 21.3648 23.606 21.7308 23.606H22.8048C23.1678 23.606 23.4648 23.9 23.4648 24.266V25.34C23.4678 25.706 23.1708 26 22.8078 26Z" fill="#FF6D00"/>
<path d="M25.9069 26H24.8329C24.4699 26 24.1729 25.706 24.1729 25.34V24.266C24.1729 23.903 24.4669 23.606 24.8329 23.606H25.9069C26.2699 23.606 26.5669 23.9 26.5669 24.266V25.34C26.5669 25.706 26.2699 26 25.9069 26Z" fill="#DE493C"/>
<path d="M20.5912 31.5504C20.8402 31.5504 21.0412 31.7514 21.0412 32.0004C21.0412 32.2494 20.8402 32.4504 20.5912 32.4504C20.3422 32.4504 20.1412 32.2494 20.1412 32.0004C20.1412 31.7514 20.3422 31.5504 20.5912 31.5504ZM20.5912 31.4004C20.2612 31.4004 19.9912 31.6704 19.9912 32.0004C19.9912 32.3304 20.2612 32.6004 20.5912 32.6004C20.9212 32.6004 21.1912 32.3304 21.1912 32.0004C21.1912 31.6704 20.9212 31.4004 20.5912 31.4004Z" fill="white"/>
<path d="M25.1354 31.5504C25.1804 31.5504 25.2194 31.5894 25.2194 31.6344V32.3664C25.2194 32.4114 25.1804 32.4504 25.1354 32.4504H24.4034C24.3584 32.4504 24.3194 32.4114 24.3194 32.3664V31.6344C24.3194 31.5894 24.3584 31.5504 24.4034 31.5504H25.1354ZM25.1354 31.4004H24.4034C24.2744 31.4004 24.1694 31.5054 24.1694 31.6344V32.3664C24.1694 32.4954 24.2744 32.6004 24.4034 32.6004H25.1354C25.2644 32.6004 25.3694 32.4954 25.3694 32.3664V31.6344C25.3694 31.5054 25.2644 31.4004 25.1354 31.4004Z" fill="white"/>
<path d="M16.8344 31.6164V32.3844L16.0694 32.0004L16.8344 31.6164ZM16.9394 31.4004C16.9334 31.4004 16.9274 31.4004 16.9214 31.4064L15.8114 31.9644C15.7784 31.9794 15.7784 32.0244 15.8114 32.0424L16.9214 32.6004C16.9274 32.6034 16.9334 32.6064 16.9394 32.6064C16.9634 32.6064 16.9814 32.5884 16.9814 32.5644V31.4424C16.9844 31.4184 16.9634 31.4004 16.9394 31.4004Z" fill="white"/>
<defs>
<linearGradient id="paint0_linear_666_197" x1="20.591" y1="38" x2="20.591" y2="2" gradientUnits="userSpaceOnUse">
<stop offset="0.0029098" stop-color="#212121"/>
<stop offset="1" stop-color="#4D4D4D"/>
</linearGradient>
<linearGradient id="paint1_linear_666_197" x1="20.5928" y1="33.2087" x2="20.5928" y2="6.7919" gradientUnits="userSpaceOnUse">
<stop offset="0.0085898" stop-color="#9E9E9E"/>
<stop offset="0.9987" stop-color="#616161"/>
</linearGradient>
</defs>
</svg>
