<svg width="41" height="40" viewBox="0 0 41 40" fill="none" xmlns="http://www.w3.org/2000/svg">
<path d="M20.1695 39.0576C10.4673 39.0576 0 32.972 0 19.6184C0 6.26487 10.4673 0.17926 20.1695 0.17926C25.5596 0.17926 30.5324 1.95278 34.2185 5.18685C38.2176 8.73389 40.3389 13.7415 40.3389 19.6184C40.3389 25.4954 38.2176 30.4682 34.2185 34.0153C30.5324 37.2493 25.5248 39.0576 20.1695 39.0576Z" fill="url(#paint0_radial_624_72)"/>
<path d="M20.1695 39.0576C10.4673 39.0576 0 32.972 0 19.6184C0 6.26487 10.4673 0.17926 20.1695 0.17926C25.5596 0.17926 30.5324 1.95278 34.2185 5.18685C38.2176 8.73389 40.3389 13.7415 40.3389 19.6184C40.3389 25.4954 38.2176 30.4682 34.2185 34.0153C30.5324 37.2493 25.5248 39.0576 20.1695 39.0576Z" fill="url(#paint1_linear_624_72)"/>
<path d="M36.823 8.06271C38.6765 11.0534 39.6433 14.6143 39.6433 18.5752C39.6433 24.4521 37.522 29.425 33.5229 32.972C29.8367 36.2061 24.8291 38.0144 19.4738 38.0144C13.1934 38.0144 6.60708 35.4584 2.71924 30.037C6.46102 36.1782 13.4995 39.0576 20.1693 39.0576C25.5246 39.0576 30.5322 37.2493 34.2184 34.0152C38.2175 30.4682 40.3388 25.4954 40.3388 19.6184C40.3388 15.1881 39.1321 11.2516 36.823 8.06271V8.06271Z" fill="#EB8F00"/>
<path opacity="0.66" d="M0.306152 23.8644C0.653902 22.9568 2.19095 22.9429 3.32809 23.4924C5.52935 24.5599 5.26853 26.8968 6.3709 27.3628C7.47326 27.8288 10.9542 24.9738 15.8471 24.5217C16.3965 24.4695 19.641 24.0627 19.9609 25.4258C20.0861 25.9649 19.1681 26.0692 19.1681 26.0692C17.1789 26.8064 15.155 27.5575 13.3746 28.7225C11.3541 30.0405 9.58758 31.9044 7.24027 32.4539C6.32569 32.666 5.29288 32.6347 4.54869 32.0678C3.62368 31.3724 3.41851 30.0961 3.08119 28.9868C2.69519 27.7175 2.05881 26.5352 1.21726 25.5093" fill="url(#paint2_linear_624_72)"/>
<path d="M0.263842 23.861C-0.369061 24.6295 0.976728 26.6708 1.21668 27.7105C1.79394 30.2213 1.21668 30.8403 1.17147 33.0728C1.13322 35.5279 1.86697 37.5936 3.73786 38.9115C5.49747 40.16 7.43443 40.3025 10.1469 39.5027C12.8593 38.7029 14.692 38.3169 14.8311 36.9815C14.9076 36.4286 14.6155 35.8861 14.1077 35.6497C14.379 35.521 14.5946 35.3019 14.7163 35.0272C15.3631 33.4832 14.073 33.1563 14.073 33.1563C14.2503 32.9442 14.3998 32.7112 14.5181 32.4608C14.9041 31.6923 14.8415 30.649 13.7287 30.3082C13.2175 30.1517 13.0784 30.2352 13.0784 30.2352C13.607 29.6927 14.2399 29.258 14.9389 28.9659C16.8098 28.1626 19.0284 27.6758 19.5813 27.2063C20.3846 26.5108 20.4333 25.172 19.0145 24.7721C16.9767 24.1739 13.2279 25.5649 10.9467 27.015C8.66547 28.4652 6.57201 29.2476 5.87652 28.9833C5.18102 28.719 4.74981 28.2878 4.48552 27.2446C3.99519 25.3041 3.61615 24.553 2.78502 23.8262C2.09648 23.235 0.750691 23.2698 0.263842 23.861V23.861Z" fill="url(#paint3_radial_624_72)"/>
<path d="M11.5735 31.4002C11.5735 31.4002 11.0623 31.0524 13.1036 29.4215C14.4946 28.3052 15.2979 28.1035 16.9636 27.6827C20.3299 26.8586 20.1177 25.7979 20.1177 25.7979C20.2986 27.3593 18.7546 27.7071 17.6244 28.0618C17.5061 28.0966 17.3949 28.1418 17.2766 28.1696C13.4062 29.1572 12.0534 31.7097 11.5735 31.4002Z" fill="url(#paint4_linear_624_72)"/>
<path d="M14.7447 35.2706C15.0473 34.7699 15.1307 34.1613 14.9708 33.598C14.8595 33.2676 14.6473 32.979 14.3587 32.7807C14.4004 32.7251 14.4422 32.6729 14.4804 32.6103C14.7899 32.127 14.8351 31.5184 14.6021 30.9933C14.3378 30.5795 13.9066 30.3048 13.4233 30.2422C13.7536 30.4021 14.0005 30.6977 14.0979 31.0524C14.1535 31.4802 14.0909 31.9183 13.924 32.3148C13.7015 32.8572 13.2042 33.2363 12.6234 33.3128C11.7819 33.4797 12.0392 33.8275 12.0392 33.8275C12.1123 34.1057 13.1068 33.8483 13.8614 33.285C14.0736 33.3963 14.2335 33.5875 14.31 33.8136C14.39 34.1648 14.3413 34.5369 14.1744 34.8568C13.9414 35.368 13.4893 35.7505 12.9468 35.9001C12.1992 36.1052 12.4044 36.3799 12.4044 36.3799C12.4044 36.3799 12.4391 36.9711 13.9762 35.9974C14.157 36.3452 14.397 37.1207 13.9171 37.6214C12.2896 39.3358 7.49414 39.9965 7.49414 39.9965C9.92839 39.9965 13.2737 39.0576 14.31 38.1987C14.7134 37.8822 14.9499 37.4023 14.9534 36.8911C14.9986 36.4147 14.8212 35.9418 14.4769 35.6079C14.5743 35.5036 14.6647 35.3923 14.7447 35.2706Z" fill="url(#paint5_linear_624_72)"/>
<path d="M24.7842 22.543C24.673 22.5221 24.5686 22.4769 24.4817 22.4039C22.9134 21.1451 21.0425 20.3244 19.0568 20.0184C17.0712 19.6741 15.0334 19.8619 13.1451 20.5608C13.0408 20.6026 12.9295 20.6165 12.8182 20.5991C12.5748 20.5574 12.3766 20.3765 12.3105 20.1366C12.2444 19.9001 12.3244 19.6497 12.5122 19.4933C16.1983 16.4331 21.6649 16.9408 24.7251 20.6269C24.9755 20.9295 25.205 21.2494 25.4137 21.5797C25.5458 21.7849 25.5458 22.0492 25.4137 22.2544C25.278 22.4665 25.0311 22.5778 24.7842 22.543V22.543Z" fill="#422B0D"/>
<path d="M26.1409 8.56349C27.598 8.56349 28.9229 9.79452 28.9229 11.8393C28.9229 13.8841 27.598 15.1116 26.1409 15.1116C24.6838 15.1116 23.3589 13.8806 23.3589 11.8393C23.3589 9.798 24.6838 8.56349 26.1409 8.56349Z" fill="#422B0D"/>
<path d="M14.0984 5.39549C12.6413 5.39549 11.3164 6.62652 11.3164 8.66781C11.3164 10.7091 12.6413 11.9436 14.0984 11.9436C15.5589 11.9436 16.8804 10.7126 16.8804 8.66781C16.8804 6.62305 15.5589 5.39549 14.0984 5.39549V5.39549Z" fill="#422B0D"/>
<path d="M11.8685 1.44158C11.712 1.18424 11.6911 0.864314 11.8128 0.589592C11.945 0.31487 12.2058 0.127085 12.5083 0.0888325C14.4036 -0.206754 16.3371 0.241842 17.9089 1.33725C18.4966 1.74064 19.0182 2.22749 19.4599 2.78737C19.4877 2.82214 19.512 2.86039 19.5364 2.90212C19.7728 3.27074 19.6928 3.75759 19.3521 4.03231C18.9869 4.33485 18.4514 4.32442 18.1002 4.00449L18.2462 3.76802L18.0689 3.97667C16.5457 2.70391 14.6401 1.97711 12.6579 1.91799C12.3275 1.91799 12.0215 1.74412 11.8546 1.45896L11.8685 1.44158Z" fill="#422B0D"/>
<path d="M30.3931 7.66285C30.6504 7.52027 30.8243 7.25946 30.8591 6.96735C30.88 6.66481 30.7513 6.3727 30.5113 6.18839C29.0056 4.98865 27.093 4.41487 25.1769 4.5957C24.4675 4.65481 23.772 4.82173 23.1112 5.0895L22.9861 5.14862C22.6001 5.35379 22.4297 5.8163 22.5896 6.22316C22.76 6.6648 23.2225 6.91518 23.685 6.81434V6.53614L23.7337 6.80738C25.6811 6.44572 27.6946 6.74827 29.4507 7.66632C29.7393 7.82977 30.0906 7.82977 30.3792 7.66632L30.3931 7.66285Z" fill="#422B0D"/>
<defs>
<radialGradient id="paint0_radial_624_72" cx="0" cy="0" r="1" gradientUnits="userSpaceOnUse" gradientTransform="translate(20.1695 19.6184) scale(19.8077 19.8077)">
<stop offset="0.5" stop-color="#FDE030"/>
<stop offset="0.92" stop-color="#F7C02B"/>
<stop offset="1" stop-color="#F4A223"/>
</radialGradient>
<linearGradient id="paint1_linear_624_72" x1="20.1695" y1="39.0576" x2="20.1695" y2="0.17926" gradientUnits="userSpaceOnUse">
<stop stop-color="#F4A223"/>
<stop offset="0.08" stop-color="#F7C02B"/>
<stop offset="0.54" stop-color="#FDE030" stop-opacity="0"/>
</linearGradient>
<linearGradient id="paint2_linear_624_72" x1="10.2147" y1="34.749" x2="10.1278" y2="23.1411" gradientUnits="userSpaceOnUse">
<stop stop-color="#BF360C"/>
<stop offset="1" stop-color="#BF360C" stop-opacity="0.2"/>
</linearGradient>
<radialGradient id="paint3_radial_624_72" cx="0" cy="0" r="1" gradientUnits="userSpaceOnUse" gradientTransform="translate(12.4664 26.7163) scale(20.5902 19.3548)">
<stop offset="0.27" stop-color="#FFF176"/>
<stop offset="1" stop-color="#FFC400"/>
</radialGradient>
<linearGradient id="paint4_linear_624_72" x1="11.7131" y1="30.6534" x2="20.4729" y2="26.3031" gradientUnits="userSpaceOnUse">
<stop offset="0.13" stop-color="#DA6727"/>
<stop offset="1" stop-color="#FFC400"/>
</linearGradient>
<linearGradient id="paint5_linear_624_72" x1="11.26" y1="39.2906" x2="11.333" y2="26.0866" gradientUnits="userSpaceOnUse">
<stop offset="0.13" stop-color="#DA6727"/>
<stop offset="1" stop-color="#FFC400"/>
</linearGradient>
</defs>
</svg>
