<svg width="41" height="41" viewBox="0 0 41 41" fill="none" xmlns="http://www.w3.org/2000/svg">
<path d="M33.1943 29.3831H33.1888V7.80843C33.1888 5.70761 31.484 4 29.3804 4H7.80843C5.70761 4 4 5.70486 4 7.80843C4 9.91201 5.70486 11.6169 7.80843 11.6169H7.81393H10.3492V33.1916C10.3492 35.2924 12.0541 37 14.1577 37C14.1851 37 14.2071 36.9918 14.2319 36.9918H33.1998V37C35.3034 37 37.0082 35.2951 37.0082 33.1916C37.0027 31.088 35.2979 29.3831 33.1943 29.3831Z" fill="url(#paint0_linear_617_380)"/>
<path d="M7.80855 5.27039C9.21093 5.27039 10.3466 6.40879 10.3466 7.80842V9.02932C10.3191 7.65444 9.19718 6.54078 7.81405 6.54078C6.63164 6.54078 5.64448 7.35746 5.364 8.45187C5.309 8.24564 5.27051 8.03391 5.27051 7.80842C5.27051 6.40879 6.40891 5.27039 7.80855 5.27039V5.27039Z" fill="#5D4037"/>
<path d="M7.81336 9.93129C8.51498 9.93129 9.08376 9.36252 9.08376 8.6609C9.08376 7.95928 8.51498 7.3905 7.81336 7.3905C7.11174 7.3905 6.54297 7.95928 6.54297 8.6609C6.54297 9.36252 7.11174 9.93129 7.81336 9.93129Z" fill="#6D4C41"/>
<path d="M11.6141 33.1888V11.6141H11.6196V9.07607H11.6141V7.80842C11.6141 6.82951 11.2347 5.94408 10.627 5.27039H29.3831C30.7828 5.27039 31.9212 6.40879 31.9212 7.80842V29.3831H14.1577H14.1549H14.1522C12.7553 29.3859 11.6196 30.5215 11.6196 31.9212C11.6196 33.3208 12.758 34.4592 14.1577 34.4592C15.3346 34.4592 16.3162 33.6508 16.605 32.5619C16.6545 32.7626 16.6902 32.9716 16.6902 33.1888C16.6902 34.5637 15.593 35.6801 14.2264 35.7186H14.1494V35.7268C12.7525 35.7241 11.6141 34.5884 11.6141 33.1888V33.1888Z" fill="url(#paint1_linear_617_380)"/>
<path d="M15.428 31.9212C15.428 32.6196 14.8588 33.1915 14.1576 33.1915C13.4592 33.1915 12.8872 32.6223 12.8872 31.9212C12.8872 31.2227 13.4564 30.6535 14.1549 30.6508H14.1604C14.8615 30.6563 15.428 31.2227 15.428 31.9212V31.9212Z" fill="#5D4037"/>
<path d="M33.194 35.7268V35.7186H16.9786C17.5808 35.0449 17.9603 34.165 17.9603 33.1888C17.9603 32.2099 17.5808 31.3245 16.9731 30.6508H33.194C34.5937 30.6508 35.7321 31.7892 35.7321 33.1888C35.7321 34.5884 34.5937 35.7268 33.194 35.7268Z" fill="black"/>
<path d="M33.1887 35.7268V35.7186H16.9733C17.5782 35.0449 17.9549 34.165 17.9549 33.1888C17.9549 32.2099 17.5755 31.3245 16.9678 30.6508H33.1887C34.5883 30.6508 35.7267 31.7892 35.7267 33.1888C35.7295 34.5884 34.5911 35.7268 33.1887 35.7268V35.7268Z" fill="url(#paint2_linear_617_380)"/>
<path d="M28.8883 11.1989H15.5327C15.2275 11.1989 14.98 10.9156 14.98 10.5664C14.98 10.2172 15.2275 9.93396 15.5327 9.93396H28.8883C29.1935 9.93396 29.441 10.2172 29.441 10.5664C29.441 10.9156 29.1935 11.1989 28.8883 11.1989Z" fill="#8D6E63"/>
<path d="M28.8883 15.0652H15.5327C15.2275 15.0652 14.98 14.782 14.98 14.4327C14.98 14.0835 15.2275 13.8003 15.5327 13.8003H28.8883C29.1935 13.8003 29.441 14.0835 29.441 14.4327C29.441 14.7792 29.1935 15.0652 28.8883 15.0652Z" fill="#8D6E63"/>
<path d="M28.8883 18.9314H15.5327C15.2275 18.9314 14.98 18.6482 14.98 18.299C14.98 17.9497 15.2275 17.6665 15.5327 17.6665H28.8883C29.1935 17.6665 29.441 17.9497 29.441 18.299C29.441 18.6482 29.1935 18.9314 28.8883 18.9314Z" fill="#8D6E63"/>
<path d="M28.8883 22.7975H15.5327C15.2275 22.7975 14.98 22.5143 14.98 22.165C14.98 21.8158 15.2275 21.5326 15.5327 21.5326H28.8883C29.1935 21.5326 29.441 21.8158 29.441 22.165C29.441 22.5143 29.1935 22.7975 28.8883 22.7975Z" fill="#8D6E63"/>
<path d="M21.2467 26.6637H15.5327C15.2275 26.6637 14.98 26.3805 14.98 26.0313C14.98 25.682 15.2275 25.3988 15.5327 25.3988H21.244C21.5492 25.3988 21.7967 25.682 21.7967 26.0313C21.7967 26.3805 21.5492 26.6637 21.2467 26.6637Z" fill="#8D6E63"/>
<path opacity="0.2" d="M29.3831 4.82493C31.0275 4.82493 32.3666 6.16407 32.3666 7.80843V29.3831C32.3666 29.8396 32.7406 30.2081 33.1971 30.2081C34.8414 30.2081 36.1806 31.5472 36.1806 33.1916C36.1806 34.8029 34.8964 36.1201 33.2988 36.1723C33.2658 36.1696 33.2328 36.1668 33.1998 36.1668H14.2291C14.1824 36.1668 14.1412 36.1696 14.1109 36.1751C12.4858 36.1503 11.1742 34.8222 11.1742 33.1943V11.6141C11.1742 11.1577 10.8057 10.7892 10.3492 10.7892H7.81118C6.16682 10.7892 4.82768 9.45005 4.82768 7.80568C4.82768 6.16132 6.16407 4.82493 7.80843 4.82493H29.3831ZM29.3831 4H7.80843C5.70761 4 4 5.70486 4 7.80843C4 9.90926 5.70486 11.6169 7.80843 11.6169H7.81393H10.3492V33.1916C10.3492 35.2924 12.0541 37 14.1577 37C14.1851 37 14.2071 36.9918 14.2319 36.9918H33.1998V37C35.3034 37 37.0082 35.2951 37.0082 33.1916C37.0082 31.088 35.3034 29.3831 33.1998 29.3831H33.1943V7.80843C33.1888 5.70486 31.4867 4 29.3831 4V4Z" fill="#424242"/>
<defs>
<linearGradient id="paint0_linear_617_380" x1="20.5014" y1="4.19598" x2="20.5014" y2="36.901" gradientUnits="userSpaceOnUse">
<stop offset="0.0147" stop-color="#A1887F"/>
<stop offset="0.2039" stop-color="#9D8279"/>
<stop offset="1" stop-color="#8D6E63"/>
</linearGradient>
<linearGradient id="paint1_linear_617_380" x1="21.2743" y1="5.45003" x2="21.2743" y2="35.7241" gradientUnits="userSpaceOnUse">
<stop offset="0.0147" stop-color="#D7C1AE"/>
<stop offset="0.2517" stop-color="#D1BBA9"/>
<stop offset="0.5799" stop-color="#C0A99A"/>
<stop offset="0.9599" stop-color="#A48C82"/>
<stop offset="1" stop-color="#A1887F"/>
</linearGradient>
<linearGradient id="paint2_linear_617_380" x1="26.3481" y1="30.7525" x2="26.3481" y2="36.0651" gradientUnits="userSpaceOnUse">
<stop offset="0.0147" stop-color="#D7C1AE"/>
<stop offset="0.2413" stop-color="#CFB9A7"/>
<stop offset="0.6006" stop-color="#B9A294"/>
<stop offset="0.9169" stop-color="#A1887F"/>
</linearGradient>
</defs>
</svg>
