<svg width="20" height="20" viewBox="0 0 20 20" fill="none" xmlns="http://www.w3.org/2000/svg">
<path d="M5.78353 4.16669C5.78331 4.60872 5.6075 5.03255 5.29478 5.34496C4.98207 5.65736 4.55806 5.83275 4.11603 5.83252C3.674 5.8323 3.25017 5.6565 2.93776 5.34378C2.62536 5.03106 2.44997 4.60705 2.4502 4.16502C2.45042 3.723 2.62622 3.29916 2.93894 2.98676C3.25166 2.67435 3.67567 2.49897 4.1177 2.49919C4.55972 2.49941 4.98356 2.67522 5.29596 2.98794C5.60837 3.30065 5.78375 3.72466 5.78353 4.16669V4.16669ZM5.83353 7.06669H2.5002V17.5H5.83353V7.06669ZM11.1002 7.06669H7.78353V17.5H11.0669V12.025C11.0669 8.97502 15.0419 8.69169 15.0419 12.025V17.5H18.3335V10.8917C18.3335 5.75002 12.4502 5.94169 11.0669 8.46669L11.1002 7.06669Z" fill="#F5F5F5"/>
</svg>
