<svg width="25" height="24" viewBox="0 0 25 24" fill="none" xmlns="http://www.w3.org/2000/svg">
<path d="M17.732 14.4C17.828 13.608 17.9 12.816 17.9 12C17.9 11.184 17.828 10.392 17.732 9.6H21.788C21.98 10.368 22.1 11.172 22.1 12C22.1 12.828 21.98 13.632 21.788 14.4M15.608 21.072C16.328 19.74 16.88 18.3 17.264 16.8H20.804C19.652 18.78 17.816 20.316 15.608 21.072ZM15.308 14.4H9.692C9.572 13.608 9.5 12.816 9.5 12C9.5 11.184 9.572 10.38 9.692 9.6H15.308C15.416 10.38 15.5 11.184 15.5 12C15.5 12.816 15.416 13.608 15.308 14.4ZM12.5 21.552C11.504 20.112 10.7 18.516 10.208 16.8H14.792C14.3 18.516 13.496 20.112 12.5 21.552ZM7.7 7.2H4.196C5.336 5.208 7.184 3.672 9.38 2.928C8.66 4.26 8.12 5.7 7.7 7.2ZM4.196 16.8H7.7C8.12 18.3 8.66 19.74 9.38 21.072C7.184 20.316 5.336 18.78 4.196 16.8M3.212 14.4C3.02 13.632 2.9 12.828 2.9 12C2.9 11.172 3.02 10.368 3.212 9.6H7.268C7.172 10.392 7.1 11.184 7.1 12C7.1 12.816 7.172 13.608 7.268 14.4M12.5 2.436C13.496 3.876 14.3 5.484 14.792 7.2H10.208C10.7 5.484 11.504 3.876 12.5 2.436ZM20.804 7.2H17.264C16.88 5.7 16.328 4.26 15.608 2.928C17.816 3.684 19.652 5.208 20.804 7.2M12.5 0C5.864 0 0.5 5.4 0.5 12C0.5 15.1826 1.76428 18.2348 4.01472 20.4853C6.26516 22.7357 9.3174 24 12.5 24C15.6826 24 18.7348 22.7357 20.9853 20.4853C23.2357 18.2348 24.5 15.1826 24.5 12C24.5 10.4241 24.1896 8.86371 23.5866 7.4078C22.9835 5.95189 22.0996 4.62902 20.9853 3.51472C19.871 2.40042 18.5481 1.5165 17.0922 0.913446C15.6363 0.310389 14.0759 0 12.5 0V0Z" fill="white"/>
</svg>
