<svg width="18" height="20" viewBox="0 0 18 20" fill="none" xmlns="http://www.w3.org/2000/svg">
<path d="M12.8486 20C13.5641 20 12.6531 20 12.6531 20H6.53061C6.53061 20 5.69385 20 6.40932 20C6.40932 19.4519 6.40932 19.7585 6.40932 19.4519L6.35822 16.8966C2.72972 17.7143 1.96314 15.4656 1.96314 15.4656C1.34987 13.9325 0.532185 13.5747 0.532185 13.5747C-0.694349 12.757 0.58329 12.757 0.58329 12.757C1.91204 12.8592 2.62751 14.0858 2.62751 14.0858C3.75184 16.0789 5.64274 15.5167 6.40932 15.2101C6.51154 14.3413 6.86927 13.7791 7.22701 13.4214C4.314 13.1148 1.29877 11.9904 1.29877 6.9821C1.29877 5.55114 1.80982 4.37571 2.62751 3.45581C2.4742 3.14918 2.06535 1.82044 2.78083 0.0317415C2.78083 0.0317415 3.85405 -0.325998 6.35822 1.36049C8.50465 0.747219 10.7533 0.747219 12.8997 1.36049C15.4039 -0.325998 16.4771 0.0317415 16.4771 0.0317415C17.1926 1.82044 16.7838 3.14918 16.6304 3.45581C17.4481 4.37571 17.9592 5.55114 17.9592 6.9821C17.9592 11.9904 14.8928 13.1148 11.9798 13.4214C12.4909 13.8302 12.8997 14.6479 12.8997 15.8745L12.8486 19.4519C12.8486 19.7385 12.8486 19.4519 12.8486 20Z" fill="white"/>
</svg>
