<svg width="90" height="65" viewBox="0 0 90 65" fill="none" xmlns="http://www.w3.org/2000/svg">
<path d="M88.1423 24.7842C86.1156 23.378 81.4713 22.8506 77.8402 23.5537C77.418 20.0383 75.4758 16.9622 72.0981 14.2377L70.1559 12.8315L68.8048 14.8529C67.116 17.4895 66.2715 21.1808 66.5248 24.6963C66.6093 25.9267 67.0315 28.1239 68.2981 30.0574C67.116 30.7605 64.6671 31.6394 61.4583 31.6394H0.405974L0.237088 32.3425C-0.354013 35.8579 -0.354013 46.8438 6.57031 55.281C11.8058 61.6968 19.5745 64.9486 29.7921 64.9486C51.9162 64.9486 68.2981 54.3142 75.9825 35.067C79.0224 35.1548 85.5245 35.067 88.8178 28.4754C88.9022 28.2996 89.0711 27.9481 89.6622 26.6298L90 25.9267L88.1423 24.7842ZM49.214 0H39.9253V8.78871H49.214V0ZM49.214 10.5465H39.9253V19.3352H49.214V10.5465ZM38.2364 10.5465H28.9477V19.3352H38.2364V10.5465ZM27.2588 10.5465H17.9701V19.3352H27.2588V10.5465ZM16.2813 21.0929H6.99253V29.8816H16.2813V21.0929ZM27.2588 21.0929H17.9701V29.8816H27.2588V21.0929ZM38.2364 21.0929H28.9477V29.8816H38.2364V21.0929ZM49.214 21.0929H39.9253V29.8816H49.214V21.0929ZM60.1916 21.0929H50.9029V29.8816H60.1916V21.0929Z" fill="#2396ED"/>
</svg>
