<svg width="60" height="90" viewBox="0 0 60 90" fill="none" xmlns="http://www.w3.org/2000/svg">
<path d="M44.9995 60C53.2838 60 59.9995 53.2843 59.9995 45C59.9995 36.7157 53.2838 30 44.9995 30C36.7152 30 29.9995 36.7157 29.9995 45C29.9995 53.2843 36.7152 60 44.9995 60Z" fill="#19BCFE"/>
<path fill-rule="evenodd" clip-rule="evenodd" d="M15 90C23.2843 90 30 83.2843 30 75C30 72.7385 30 67.7385 30 60C23.2614 60 18.2614 60 15 60C6.71573 60 0 66.7157 0 75C0 83.2843 6.71573 90 15 90Z" fill="#09CF83"/>
<path fill-rule="evenodd" clip-rule="evenodd" d="M15 60H30V30C22.7614 30 17.7614 30 15 30C6.71573 30 0 36.7157 0 45C0 53.2843 6.71573 60 15 60Z" fill="#A259FF"/>
<path fill-rule="evenodd" clip-rule="evenodd" d="M15 30H30V0C22.7614 0 17.7614 0 15 0C6.71573 0 0 6.71573 0 15C0 23.2843 6.71573 30 15 30Z" fill="#F24E1E"/>
<path fill-rule="evenodd" clip-rule="evenodd" d="M44.9995 30H29.9995V0H44.9995C53.2838 0 59.9995 6.71573 59.9995 15C59.9995 23.2843 53.2838 30 44.9995 30Z" fill="#FF7262"/>
</svg>
