<svg width="91" height="90" viewBox="0 0 91 90" fill="none" xmlns="http://www.w3.org/2000/svg">
<path d="M88.3042 40.9907L49.0081 1.69754C46.7467 -0.565845 43.0761 -0.565845 40.8117 1.69754L32.6519 9.85736L43.003 20.2085C45.4086 19.3958 48.1667 19.9409 50.0845 21.8586C52.0111 23.7882 52.5523 26.57 51.7198 28.9835L61.6956 38.9594C64.1091 38.1279 66.8939 38.6661 68.8215 40.5967C71.5155 43.2896 71.5155 47.6544 68.8215 50.3494C66.1266 53.0443 61.7618 53.0443 59.0659 50.3494C57.0395 48.321 56.5388 45.3446 57.5649 42.8482L48.2615 33.5448L48.2605 58.0273C48.9172 58.3532 49.5374 58.7867 50.0845 59.3318C52.7784 62.0247 52.7784 66.3895 50.0845 69.0864C47.3895 71.7804 43.0228 71.7804 40.3318 69.0864C37.6378 66.3895 37.6378 62.0247 40.3318 59.3318C40.9974 58.6672 41.7676 58.1645 42.5892 57.8268V33.1163C41.7676 32.7805 40.9984 32.2808 40.3318 31.6113C38.2906 29.5731 37.7998 26.5779 38.8456 24.0716L28.6426 13.8667L1.69828 40.809C-0.566092 43.0743 -0.566092 46.7449 1.69828 49.0083L40.9944 88.3025C43.2568 90.5658 46.9264 90.5658 49.1917 88.3025L88.3042 49.191C90.5676 46.9266 90.5676 43.2541 88.3042 40.9907Z" fill="#DE4C36"/>
</svg>
