<svg width="24" height="25" viewBox="0 0 24 25" fill="none" xmlns="http://www.w3.org/2000/svg">
<path d="M16.302 23.5999C17.0962 23.5999 16.0849 23.5999 16.0849 23.5999H9.28902C9.28902 23.5999 8.36021 23.5999 9.15439 23.5999C9.15439 22.9915 9.15439 23.3318 9.15439 22.9915L9.09766 20.1551C5.07003 21.0627 4.21913 18.5667 4.21913 18.5667C3.5384 16.8649 2.63076 16.4678 2.63076 16.4678C1.26931 15.5602 2.68749 15.5602 2.68749 15.5602C4.1624 15.6737 4.95658 17.0351 4.95658 17.0351C6.20458 19.2475 8.30348 18.6235 9.15439 18.2831C9.26784 17.3187 9.66493 16.6947 10.062 16.2977C6.82857 15.9573 3.48167 14.7093 3.48167 9.15003C3.48167 7.56167 4.04894 6.25695 4.95658 5.23586C4.7864 4.89549 4.33258 3.42059 5.12676 1.43514C5.12676 1.43514 6.31803 1.03804 9.09766 2.91004C11.4802 2.22932 13.9762 2.22932 16.3587 2.91004C19.1384 1.03804 20.3296 1.43514 20.3296 1.43514C21.1238 3.42059 20.67 4.89549 20.4998 5.23586C21.4075 6.25695 21.9747 7.56167 21.9747 9.15003C21.9747 14.7093 18.5711 15.9573 15.3377 16.2977C15.9049 16.7515 16.3587 17.6591 16.3587 19.0206L16.302 22.9915C16.302 23.3097 16.302 22.9915 16.302 23.5999Z" fill="white"/>
</svg>
